<svg xmlns="http://www.w3.org/2000/svg" width="375" viewBox="0 0 375 375" height="375" version="1.0"><defs><clipPath id="a"><path d="M 132 257 L 188 257 L 188 337.5 L 132 337.5 Z M 132 257"/></clipPath><clipPath id="b"><path d="M 187 257 L 243 257 L 243 337.5 L 187 337.5 Z M 187 257"/></clipPath><clipPath id="c"><path d="M 227 132 L 337.5 132 L 337.5 193 L 227 193 Z M 227 132"/></clipPath><clipPath id="d"><path d="M 282 162 L 337.5 162 L 337.5 243 L 282 243 Z M 282 162"/></clipPath><clipPath id="e"><path d="M 37.5 132 L 148 132 L 148 193 L 37.5 193 Z M 37.5 132"/></clipPath><clipPath id="f"><path d="M 37.5 162 L 93 162 L 93 243 L 37.5 243 Z M 37.5 162"/></clipPath><clipPath id="g"><path d="M 132 37.5 L 243 37.5 L 243 98 L 132 98 Z M 132 37.5"/></clipPath></defs><path fill="#5271FF" d="M 242.5 257.5 L 187.5 227.5 L 132.5 257.5 L 187.5 287.5 Z M 242.5 257.5"/><g clip-path="url(#a)"><path fill="#546DED" d="M 132.5 257.5 L 132.5 307.5 L 187.5 337.5 L 187.5 287.5"/></g><g clip-path="url(#b)"><path fill="#3D54BD" d="M 242.5 257.5 L 242.5 307.5 L 187.5 337.5 L 187.5 287.5"/></g><g clip-path="url(#c)"><path fill="#5271FF" d="M 337.5 162.5 L 282.5 132.5 L 227.5 162.5 L 282.5 192.5 Z M 337.5 162.5"/></g><path fill="#546DED" d="M 227.5 162.5 L 227.5 212.5 L 282.5 242.5 L 282.5 192.5"/><g clip-path="url(#d)"><path fill="#3D54BD" d="M 337.5 162.5 L 337.5 212.5 L 282.5 242.5 L 282.5 192.5"/></g><g clip-path="url(#e)"><path fill="#5271FF" d="M 147.5 162.5 L 92.5 132.5 L 37.5 162.5 L 92.5 192.5 Z M 147.5 162.5"/></g><g clip-path="url(#f)"><path fill="#546DED" d="M 37.5 162.5 L 37.5 212.5 L 92.5 242.5 L 92.5 192.5"/></g><path fill="#3D54BD" d="M 147.5 162.5 L 147.5 212.5 L 92.5 242.5 L 92.5 192.5"/><g clip-path="url(#g)"><path fill="#5271FF" d="M 242.5 67.5 L 187.5 37.5 L 132.5 67.5 L 187.5 97.5 Z M 242.5 67.5"/></g><path fill="#546DED" d="M 132.5 67.5 L 132.5 117.5 L 187.5 147.5 L 187.5 97.5"/><path fill="#3D54BD" d="M 242.5 67.5 L 242.5 117.5 L 187.5 147.5 L 187.5 97.5"/><path fill="#363A4F" d="M 147.5 287.5 L 92.5 287.5 C 89.734375 287.5 87.5 285.261719 87.5 282.5 L 87.5 257.5 L 97.5 257.5 L 97.5 277.5 L 147.5 277.5 Z M 147.5 287.5"/><path fill="#363A4F" d="M 282.5 287.5 L 227.5 287.5 L 227.5 277.5 L 277.5 277.5 L 277.5 257.5 L 287.5 257.5 L 287.5 282.5 C 287.5 285.261719 285.265625 287.5 282.5 287.5 Z M 282.5 287.5"/><path fill="#363A4F" d="M 287.5 152.5 L 277.5 152.5 L 277.5 97.5 L 227.5 97.5 L 227.5 87.5 L 282.5 87.5 C 285.265625 87.5 287.5 89.738281 287.5 92.5 Z M 287.5 152.5"/><path fill="#363A4F" d="M 97.5 152.5 L 87.5 152.5 L 87.5 92.5 C 87.5 89.738281 89.734375 87.5 92.5 87.5 L 147.5 87.5 L 147.5 97.5 L 97.5 97.5 Z M 97.5 152.5"/></svg>