<svg xmlns="http://www.w3.org/2000/svg" width="375" viewBox="0 0 375 375" height="375" version="1.0"><defs><clipPath id="a"><path d="M 37.5 37.5 L 337.5 37.5 L 337.5 337.5 L 37.5 337.5 Z M 37.5 37.5"/></clipPath></defs><g clip-path="url(#a)"><path fill="#5271FF" d="M 187.5 337.5 C 206.09375 337.5 223.890625 334.109375 240.320312 327.921875 C 239.757812 327.367188 239.199219 326.808594 238.652344 326.257812 C 238.082031 325.691406 237.519531 325.128906 236.960938 324.566406 C 236.390625 324.003906 235.824219 323.4375 235.269531 322.875 C 234.699219 322.308594 234.132812 321.746094 233.578125 321.183594 C 233.007812 320.617188 232.445312 320.054688 231.886719 319.492188 C 231.3125 318.925781 230.75 318.359375 230.191406 317.796875 C 229.621094 317.230469 229.058594 316.667969 228.503906 316.109375 C 227.933594 315.542969 227.367188 314.980469 226.8125 314.414062 C 226.238281 313.847656 225.675781 313.285156 225.121094 312.722656 C 224.546875 312.160156 223.984375 311.59375 223.429688 311.035156 C 222.855469 310.46875 222.289062 309.898438 221.734375 309.335938 C 221.160156 308.773438 220.597656 308.210938 220.046875 307.648438 C 219.472656 307.082031 218.910156 306.519531 218.351562 305.957031 C 217.777344 305.390625 217.214844 304.824219 216.660156 304.261719 C 216.089844 303.699219 215.523438 303.136719 214.96875 302.574219 C 214.398438 302.007812 213.832031 301.445312 213.277344 300.882812 C 212.703125 300.3125 212.140625 299.75 211.585938 299.1875 C 211.011719 298.625 210.449219 298.058594 209.890625 297.496094 C 209.320312 296.929688 208.753906 296.363281 208.199219 295.804688 C 207.628906 295.238281 207.066406 294.675781 206.511719 294.113281 C 205.9375 293.546875 205.375 292.984375 204.816406 292.421875 C 204.242188 291.855469 203.679688 291.292969 203.125 290.730469 C 202.554688 290.164062 201.988281 289.601562 201.433594 289.039062 C 200.863281 288.472656 200.292969 287.90625 199.738281 287.34375 C 199.167969 286.777344 198.605469 286.214844 198.050781 285.65625 C 197.476562 285.089844 196.914062 284.523438 196.355469 283.960938 C 195.785156 283.398438 195.222656 282.832031 194.667969 282.273438 C 194.09375 281.703125 193.53125 281.140625 192.972656 280.578125 C 192.402344 280.011719 191.835938 279.449219 191.28125 278.886719 C 190.707031 278.320312 190.144531 277.757812 189.589844 277.195312 C 189.019531 276.628906 188.453125 276.066406 187.898438 275.503906 C 187.328125 274.9375 186.765625 274.375 186.207031 273.8125 C 185.632812 273.246094 185.070312 272.679688 184.515625 272.117188 C 183.941406 271.554688 183.378906 270.988281 182.820312 270.425781 C 182.25 269.863281 181.6875 269.296875 181.132812 268.738281 C 180.558594 268.167969 179.996094 267.605469 179.441406 267.042969 C 178.867188 266.476562 178.304688 265.914062 177.746094 265.351562 C 177.175781 264.789062 176.609375 264.222656 176.054688 263.660156 C 175.484375 263.09375 174.917969 262.53125 174.363281 261.964844 C 173.792969 261.402344 173.230469 260.839844 172.671875 260.277344 C 172.101562 259.710938 171.535156 259.144531 170.980469 258.582031 C 170.410156 258.019531 169.84375 257.457031 169.289062 256.894531 C 168.71875 256.328125 168.152344 255.765625 167.597656 255.203125 C 167.023438 254.632812 166.460938 254.070312 165.90625 253.507812 C 165.332031 252.941406 164.769531 252.378906 164.214844 251.820312 C 163.640625 251.253906 163.078125 250.6875 162.519531 250.125 C 161.949219 249.558594 161.386719 248.996094 160.832031 248.433594 C 160.257812 247.867188 159.695312 247.304688 159.136719 246.742188 C 158.5625 246.175781 158 245.609375 157.445312 245.046875 C 156.871094 244.484375 156.308594 243.921875 155.757812 243.359375 C 155.183594 242.792969 154.617188 242.230469 154.0625 241.667969 C 153.488281 241.101562 152.925781 240.535156 152.371094 239.976562 C 151.796875 239.410156 151.234375 238.84375 150.675781 238.28125 C 150.105469 237.71875 149.539062 237.152344 148.984375 236.589844 C 148.414062 236.023438 147.851562 235.460938 147.296875 234.898438 C 146.722656 234.332031 146.160156 233.769531 145.601562 233.207031 C 128.058594 215.855469 118.359375 200.375 113.957031 186.507812 L 118.96875 186.507812 C 118.960938 186.453125 118.945312 186.394531 118.9375 186.34375 L 117.601562 186.34375 C 117.46875 185.773438 117.355469 185.210938 117.242188 184.648438 L 115.90625 184.648438 C 115.777344 184.082031 115.664062 183.519531 115.550781 182.957031 L 114.214844 182.957031 C 114.085938 182.390625 113.972656 181.828125 113.859375 181.265625 L 112.523438 181.265625 C 111.832031 178.253906 111.386719 175.320312 111.164062 172.460938 L 111.164062 163.730469 C 113.269531 137.492188 130.5625 123.796875 145.515625 122.332031 C 147.972656 122.09375 150.269531 121.976562 152.429688 121.976562 C 166.457031 121.976562 174.558594 126.898438 182.183594 134.792969 C 182.753906 135.34375 183.316406 135.90625 183.875 136.484375 C 184.445312 137.03125 185.007812 137.597656 185.566406 138.175781 C 186.136719 138.722656 186.699219 139.289062 187.261719 139.871094 C 187.4375 140.042969 187.617188 140.21875 187.796875 140.394531 C 197.167969 129.289062 205.460938 121.976562 222.554688 121.976562 C 224.710938 121.976562 227.007812 122.09375 229.472656 122.332031 C 236.957031 123.066406 245.03125 126.863281 251.488281 133.761719 C 252.0625 134.304688 252.628906 134.867188 253.179688 135.453125 C 253.753906 136 254.324219 136.558594 254.875 137.148438 C 255.449219 137.691406 256.015625 138.25 256.566406 138.839844 C 257.140625 139.382812 257.707031 139.941406 258.257812 140.53125 C 258.832031 141.074219 259.398438 141.632812 259.949219 142.222656 C 260.523438 142.765625 261.089844 143.324219 261.640625 143.914062 C 262.214844 144.457031 262.78125 145.015625 263.332031 145.605469 C 263.90625 146.148438 264.472656 146.710938 265.023438 147.296875 C 265.597656 147.839844 266.164062 148.402344 266.714844 148.988281 C 267.289062 149.535156 267.855469 150.089844 268.410156 150.683594 C 268.984375 151.226562 269.546875 151.785156 270.101562 152.371094 C 270.671875 152.917969 271.238281 153.476562 271.789062 154.0625 C 272.363281 154.609375 272.933594 155.167969 273.484375 155.757812 C 274.058594 156.300781 274.625 156.859375 275.175781 157.449219 C 275.75 157.992188 276.316406 158.550781 276.867188 159.140625 C 277.441406 159.683594 278.007812 160.242188 278.558594 160.832031 C 279.132812 161.375 279.699219 161.933594 280.25 162.523438 C 280.824219 163.070312 281.390625 163.625 281.945312 164.214844 C 282.515625 164.761719 283.082031 165.320312 283.632812 165.90625 C 284.207031 166.453125 284.773438 167.011719 285.324219 167.597656 C 285.898438 168.144531 286.46875 168.703125 287.019531 169.292969 C 287.59375 169.835938 288.160156 170.394531 288.710938 170.984375 C 289.285156 171.527344 289.851562 172.085938 290.402344 172.675781 C 290.976562 173.21875 291.542969 173.777344 292.09375 174.367188 C 292.667969 174.910156 293.234375 175.46875 293.785156 176.058594 C 294.359375 176.605469 294.925781 177.160156 295.480469 177.75 C 296.050781 178.292969 296.617188 178.855469 297.167969 179.441406 C 297.742188 179.984375 298.308594 180.546875 298.859375 181.132812 C 299.433594 181.679688 300.003906 182.234375 300.554688 182.828125 C 301.128906 183.371094 301.695312 183.929688 302.246094 184.519531 C 302.820312 185.0625 303.382812 185.621094 303.9375 186.210938 C 304.507812 186.753906 305.078125 187.3125 305.628906 187.902344 C 306.203125 188.445312 306.769531 189.003906 307.320312 189.59375 C 307.894531 190.136719 308.460938 190.695312 309.011719 191.285156 C 309.585938 191.828125 310.152344 192.390625 310.703125 192.976562 C 311.277344 193.519531 311.84375 194.082031 312.394531 194.667969 C 312.96875 195.214844 313.535156 195.769531 314.089844 196.363281 C 314.660156 196.90625 315.226562 197.464844 315.78125 198.054688 C 316.351562 198.59375 316.917969 199.15625 317.46875 199.742188 C 318.042969 200.289062 318.613281 200.847656 319.164062 201.4375 C 319.738281 201.980469 320.304688 202.539062 320.855469 203.128906 C 321.429688 203.671875 321.996094 204.230469 322.546875 204.820312 C 323.121094 205.363281 323.6875 205.921875 324.238281 206.511719 C 324.8125 207.054688 325.378906 207.613281 325.929688 208.203125 C 326.503906 208.75 327.070312 209.304688 327.621094 209.894531 C 328.195312 210.441406 328.761719 211 329.3125 211.585938 C 329.886719 212.128906 330.453125 212.691406 331.003906 213.277344 C 331.578125 213.824219 332.148438 214.382812 332.699219 214.972656 C 333.273438 215.515625 333.839844 216.074219 334.390625 216.664062 C 334.464844 216.734375 334.542969 216.804688 334.617188 216.875 C 336.503906 207.375 337.5 197.554688 337.5 187.5 C 337.5 104.65625 270.34375 37.5 187.5 37.5 C 104.65625 37.5 37.5 104.65625 37.5 187.5 C 37.5 270.34375 104.65625 337.5 187.5 337.5"/></g><path fill="#FFF" d="M 116.660156 181.265625 L 163.121094 181.265625 C 163.175781 181.175781 163.238281 181.023438 163.265625 180.800781 L 163.539062 178.6875 L 164.101562 174.371094 L 164.597656 170.523438 L 165.054688 167 L 165.480469 163.738281 L 165.832031 161.019531 C 165.847656 160.917969 165.863281 160.820312 165.882812 160.71875 C 166.140625 159.226562 166.835938 157.984375 167.820312 157.144531 C 168.632812 156.453125 169.636719 156.039062 170.738281 155.996094 C 170.796875 155.996094 170.851562 155.992188 170.910156 155.992188 C 170.914062 155.992188 170.917969 155.992188 170.921875 155.992188 C 172.117188 155.992188 173.203125 156.429688 174.066406 157.183594 C 174.613281 157.660156 175.074219 158.265625 175.414062 158.96875 C 175.703125 159.570312 175.90625 160.25 176.007812 160.980469 L 176.011719 161.011719 L 176.308594 163.203125 L 176.617188 165.460938 L 176.929688 167.785156 L 177.253906 170.179688 L 177.589844 172.644531 L 177.933594 175.179688 L 178.285156 177.792969 L 178.648438 180.488281 L 179.027344 183.265625 L 179.417969 186.132812 L 179.816406 189.097656 L 180.234375 192.167969 L 180.664062 195.355469 L 181.117188 198.671875 L 181.585938 202.132812 L 182.078125 205.785156 L 182.601562 209.632812 L 183.15625 213.714844 L 183.75 218.117188 L 184.402344 222.929688 L 184.960938 227.0625 L 187 216.082031 L 188.328125 208.941406 L 189.324219 203.570312 L 190.164062 199.050781 L 190.898438 195.082031 L 191.5625 191.515625 L 192.167969 188.261719 L 192.71875 185.28125 L 193.234375 182.503906 L 193.710938 179.941406 L 194.15625 177.542969 L 194.570312 175.320312 L 194.953125 173.246094 L 195.265625 171.558594 C 195.28125 171.480469 195.300781 171.40625 195.316406 171.332031 C 195.46875 170.644531 195.710938 170.019531 196.035156 169.460938 C 196.46875 168.714844 197.042969 168.101562 197.71875 167.664062 C 198.449219 167.1875 199.296875 166.914062 200.210938 166.894531 C 201.320312 166.878906 202.351562 167.242188 203.199219 167.898438 C 203.761719 168.332031 204.242188 168.894531 204.617188 169.5625 C 204.886719 170.046875 205.101562 170.585938 205.246094 171.171875 C 205.257812 171.214844 205.269531 171.253906 205.277344 171.292969 L 205.992188 174.4375 L 206.375 176.117188 L 206.761719 177.828125 L 207.15625 179.566406 L 207.558594 181.328125 L 207.960938 183.105469 L 208.371094 184.90625 L 208.789062 186.746094 L 209.21875 188.636719 L 209.660156 190.578125 L 210.113281 192.570312 L 210.578125 194.613281 L 210.917969 196.109375 L 211.261719 194.410156 L 211.707031 192.191406 L 212.125 190.136719 L 212.511719 188.226562 L 212.878906 186.386719 L 213.242188 184.601562 L 213.589844 182.886719 L 213.917969 181.242188 L 214.238281 179.667969 L 214.371094 179.007812 C 214.425781 178.722656 214.503906 178.449219 214.59375 178.183594 C 214.753906 177.699219 214.964844 177.25 215.21875 176.847656 C 215.480469 176.421875 215.796875 176.050781 216.148438 175.726562 C 216.511719 175.398438 216.914062 175.121094 217.351562 174.914062 C 217.796875 174.699219 218.28125 174.558594 218.785156 174.496094 C 218.867188 174.484375 218.953125 174.472656 219.039062 174.464844 C 219.484375 174.429688 219.917969 174.460938 220.332031 174.546875 C 221.546875 174.792969 222.621094 175.53125 223.386719 176.621094 C 223.5625 176.875 223.71875 177.144531 223.859375 177.433594 C 223.953125 177.628906 224.042969 177.828125 224.121094 178.035156 L 224.191406 178.226562 L 224.511719 179.09375 L 224.867188 180.0625 L 225.257812 181.128906 L 225.394531 181.5 C 225.417969 181.566406 225.441406 181.617188 225.464844 181.65625 L 226.347656 181.652344 L 227.632812 181.648438 L 228.390625 181.644531 L 229.046875 181.644531 L 230.984375 181.636719 L 234.160156 181.625 L 237.402344 181.617188 L 240.722656 181.605469 L 244.164062 181.59375 L 247.765625 181.582031 L 251.59375 181.566406 L 255.78125 181.554688 L 260.53125 181.539062 L 262.410156 181.53125 C 262.484375 181.222656 262.542969 180.914062 262.609375 180.601562 C 262.792969 179.761719 262.960938 178.929688 263.105469 178.101562 C 263.242188 177.328125 263.359375 176.558594 263.464844 175.796875 C 263.5625 175.074219 263.648438 174.359375 263.71875 173.652344 C 263.757812 173.253906 263.804688 172.855469 263.835938 172.460938 L 263.835938 163.730469 C 263.804688 163.34375 263.757812 162.96875 263.722656 162.589844 C 263.664062 162.03125 263.609375 161.472656 263.539062 160.929688 C 263.46875 160.378906 263.394531 159.835938 263.3125 159.296875 C 263.230469 158.757812 263.136719 158.222656 263.035156 157.695312 C 262.941406 157.164062 262.839844 156.636719 262.730469 156.121094 C 262.621094 155.597656 262.507812 155.078125 262.386719 154.570312 C 262.261719 154.0625 262.128906 153.566406 261.992188 153.070312 C 261.859375 152.582031 261.71875 152.101562 261.574219 151.625 C 261.429688 151.15625 261.289062 150.6875 261.136719 150.230469 C 260.984375 149.769531 260.816406 149.320312 260.652344 148.871094 C 260.492188 148.425781 260.324219 147.992188 260.148438 147.558594 C 259.980469 147.136719 259.8125 146.714844 259.632812 146.300781 C 259.453125 145.882812 259.261719 145.476562 259.070312 145.070312 C 258.882812 144.664062 258.6875 144.265625 258.488281 143.871094 C 258.292969 143.480469 258.097656 143.089844 257.890625 142.710938 C 257.6875 142.328125 257.46875 141.953125 257.253906 141.582031 C 257.042969 141.214844 256.824219 140.851562 256.601562 140.492188 C 256.386719 140.136719 256.167969 139.78125 255.945312 139.4375 C 255.707031 139.078125 255.464844 138.730469 255.21875 138.382812 C 254.984375 138.042969 254.746094 137.714844 254.503906 137.386719 C 254.265625 137.070312 254.03125 136.75 253.789062 136.445312 C 253.527344 136.109375 253.257812 135.789062 252.988281 135.464844 C 252.71875 135.144531 252.449219 134.835938 252.179688 134.527344 C 251.949219 134.273438 251.722656 134.011719 251.488281 133.761719 C 245.03125 126.863281 236.957031 123.066406 229.472656 122.332031 C 227.007812 122.09375 224.710938 121.976562 222.554688 121.976562 C 205.460938 121.976562 197.167969 129.289062 187.796875 140.394531 C 187.78125 140.410156 187.765625 140.425781 187.753906 140.441406 C 187.71875 140.484375 187.683594 140.527344 187.644531 140.570312 C 187.59375 140.632812 187.542969 140.691406 187.492188 140.753906 C 187.222656 140.433594 186.957031 140.121094 186.695312 139.808594 C 186.382812 139.445312 186.074219 139.082031 185.761719 138.722656 C 185.457031 138.371094 185.152344 138.023438 184.847656 137.679688 C 184.546875 137.339844 184.246094 137.007812 183.945312 136.675781 C 183.652344 136.351562 183.355469 136.03125 183.058594 135.710938 C 182.769531 135.402344 182.476562 135.097656 182.183594 134.792969 C 174.558594 126.898438 166.457031 121.976562 152.429688 121.976562 C 150.269531 121.976562 147.972656 122.09375 145.515625 122.332031 C 130.5625 123.796875 113.269531 137.492188 111.164062 163.730469 L 111.164062 172.460938 C 111.386719 175.320312 111.832031 178.253906 112.523438 181.265625 L 116.660156 181.265625"/><path fill="#FFF" d="M 147.332031 234.902344 C 147.628906 235.1875 147.929688 235.472656 148.226562 235.761719 C 148.523438 236.042969 148.820312 236.328125 149.125 236.617188 C 149.421875 236.898438 149.71875 237.179688 150.019531 237.460938 C 150.324219 237.746094 150.632812 238.03125 150.941406 238.316406 C 151.25 238.605469 151.558594 238.890625 151.871094 239.179688 C 152.175781 239.460938 152.488281 239.742188 152.796875 240.023438 C 153.113281 240.3125 153.429688 240.601562 153.753906 240.886719 C 154.070312 241.175781 154.390625 241.464844 154.714844 241.753906 C 155.03125 242.035156 155.351562 242.316406 155.671875 242.601562 C 156 242.890625 156.328125 243.179688 156.660156 243.46875 C 156.988281 243.757812 157.316406 244.042969 157.648438 244.332031 C 157.976562 244.617188 158.3125 244.902344 158.644531 245.1875 C 158.980469 245.480469 159.320312 245.769531 159.664062 246.0625 C 160 246.347656 160.339844 246.636719 160.679688 246.921875 C 161.023438 247.210938 161.367188 247.496094 161.710938 247.785156 C 162.0625 248.078125 162.410156 248.371094 162.765625 248.664062 C 163.109375 248.949219 163.460938 249.238281 163.8125 249.527344 C 164.164062 249.816406 164.515625 250.105469 164.875 250.398438 C 165.230469 250.6875 165.59375 250.980469 165.957031 251.273438 C 166.3125 251.5625 166.675781 251.851562 167.035156 252.140625 C 167.402344 252.433594 167.765625 252.722656 168.132812 253.015625 C 168.5 253.308594 168.871094 253.601562 169.246094 253.894531 C 169.613281 254.183594 169.984375 254.476562 170.359375 254.769531 C 170.734375 255.0625 171.109375 255.355469 171.488281 255.648438 C 171.863281 255.941406 172.246094 256.234375 172.628906 256.527344 C 173.011719 256.820312 173.394531 257.113281 173.78125 257.40625 C 174.160156 257.699219 174.546875 257.992188 174.933594 258.285156 C 175.324219 258.582031 175.714844 258.875 176.109375 259.167969 C 176.503906 259.464844 176.894531 259.761719 177.292969 260.058594 C 177.6875 260.351562 178.085938 260.644531 178.480469 260.9375 C 178.882812 261.230469 179.28125 261.53125 179.6875 261.824219 C 180.089844 262.121094 180.496094 262.417969 180.902344 262.714844 C 181.304688 263.007812 181.714844 263.304688 182.125 263.601562 C 182.535156 263.898438 182.945312 264.195312 183.359375 264.492188 C 183.769531 264.789062 184.1875 265.085938 184.605469 265.382812 C 185.019531 265.679688 185.441406 265.976562 185.863281 266.273438 C 186.28125 266.570312 186.699219 266.867188 187.125 267.167969 C 187.246094 267.253906 187.367188 267.335938 187.492188 267.425781 C 187.636719 267.320312 187.78125 267.21875 187.925781 267.117188 C 188.144531 266.964844 188.363281 266.808594 188.582031 266.65625 C 188.816406 266.488281 189.054688 266.324219 189.289062 266.15625 C 189.546875 265.972656 189.804688 265.789062 190.058594 265.609375 C 190.339844 265.410156 190.613281 265.210938 190.894531 265.015625 C 191.195312 264.800781 191.496094 264.582031 191.796875 264.367188 C 191.816406 264.355469 191.832031 264.34375 191.851562 264.332031 C 192.636719 263.761719 193.414062 263.199219 194.1875 262.636719 C 194.261719 262.585938 194.335938 262.53125 194.410156 262.472656 C 194.597656 262.335938 194.789062 262.195312 194.980469 262.058594 C 195.394531 261.753906 195.8125 261.449219 196.226562 261.144531 C 196.679688 260.808594 197.136719 260.46875 197.582031 260.136719 C 198.109375 259.746094 198.625 259.359375 199.140625 258.96875 C 199.707031 258.542969 200.269531 258.117188 200.832031 257.691406 C 201.402344 257.257812 201.964844 256.828125 202.523438 256.398438 C 203.152344 255.910156 203.78125 255.429688 204.398438 254.945312 C 205.125 254.378906 205.84375 253.8125 206.558594 253.25 C 207.371094 252.601562 208.179688 251.957031 208.976562 251.316406 C 209.921875 250.554688 210.851562 249.792969 211.769531 249.039062 C 212.914062 248.09375 214.035156 247.15625 215.132812 246.21875 C 216.730469 244.863281 218.28125 243.519531 219.789062 242.183594 C 225.378906 237.21875 230.339844 232.40625 234.722656 227.730469 C 236.007812 226.363281 237.238281 225.007812 238.421875 223.667969 C 239.253906 222.730469 240.054688 221.796875 240.835938 220.871094 C 241.445312 220.148438 242.042969 219.425781 242.628906 218.710938 C 243.148438 218.066406 243.65625 217.429688 244.15625 216.792969 C 244.621094 216.203125 245.078125 215.617188 245.523438 215.027344 C 245.933594 214.488281 246.335938 213.953125 246.730469 213.414062 C 247.09375 212.921875 247.445312 212.433594 247.796875 211.949219 C 248.109375 211.507812 248.421875 211.066406 248.726562 210.628906 C 248.996094 210.238281 249.265625 209.84375 249.53125 209.453125 C 249.765625 209.113281 249.992188 208.769531 250.222656 208.425781 C 250.414062 208.132812 250.609375 207.839844 250.800781 207.546875 C 250.960938 207.300781 251.117188 207.054688 251.277344 206.808594 C 251.40625 206.609375 251.527344 206.410156 251.65625 206.207031 C 251.753906 206.054688 251.851562 205.894531 251.949219 205.742188 C 252.019531 205.625 252.089844 205.511719 252.160156 205.398438 C 252.210938 205.320312 252.253906 205.246094 252.304688 205.167969 C 252.332031 205.125 252.355469 205.082031 252.382812 205.039062 C 252.390625 205.027344 252.398438 205.011719 252.40625 205 C 252.867188 204.242188 253.3125 203.492188 253.742188 202.75 C 255.234375 200.164062 256.542969 197.628906 257.683594 195.140625 C 258.4375 193.5 259.109375 191.882812 259.71875 190.285156 C 260.164062 189.101562 260.578125 187.933594 260.949219 186.777344 L 260.621094 186.777344 L 256.476562 186.792969 L 252.667969 186.804688 L 249.082031 186.816406 L 245.65625 186.828125 L 242.339844 186.839844 L 239.105469 186.847656 L 235.9375 186.859375 L 234.261719 186.863281 L 234.054688 186.863281 L 233.65625 186.867188 L 232.941406 186.871094 L 231.71875 186.875 L 229.539062 186.882812 L 225.230469 186.894531 C 225.226562 186.894531 225.21875 186.894531 225.214844 186.894531 C 223.730469 186.894531 222.363281 186.167969 221.40625 184.960938 C 221.042969 184.496094 220.730469 183.96875 220.507812 183.371094 C 220.496094 183.351562 220.484375 183.332031 220.480469 183.308594 L 219.945312 181.863281 L 219.425781 180.445312 L 219.164062 181.730469 L 218.875 183.171875 L 218.570312 184.691406 L 218.246094 186.289062 L 217.90625 187.964844 L 217.554688 189.707031 L 217.191406 191.511719 L 216.816406 193.367188 L 216.417969 195.332031 L 215.992188 197.441406 L 215.9375 197.71875 C 215.773438 198.519531 215.480469 199.246094 215.089844 199.867188 C 214.167969 201.34375 212.679688 202.257812 210.980469 202.277344 C 210.558594 202.28125 210.15625 202.226562 209.765625 202.128906 C 208.882812 201.90625 208.09375 201.4375 207.453125 200.769531 C 206.945312 200.234375 206.527344 199.578125 206.234375 198.824219 C 206.117188 198.523438 206.019531 198.207031 205.945312 197.878906 L 205.648438 196.566406 L 205.140625 194.324219 L 204.640625 192.125 L 204.152344 189.984375 L 203.675781 187.890625 L 203.210938 185.839844 L 202.757812 183.839844 L 202.316406 181.894531 L 201.882812 179.996094 L 201.464844 178.152344 L 201.054688 176.351562 L 200.648438 174.566406 L 200.3125 173.082031 L 200.03125 174.605469 L 199.683594 176.46875 L 199.316406 178.445312 L 198.921875 180.558594 L 198.5 182.84375 L 198.042969 185.292969 L 197.554688 187.933594 L 197.03125 190.765625 L 196.457031 193.847656 L 195.835938 197.199219 L 195.148438 200.882812 L 194.382812 205.015625 L 193.496094 209.792969 L 192.417969 215.597656 L 190.863281 223.976562 L 189.976562 228.746094 C 189.753906 229.964844 189.226562 231.015625 188.5 231.808594 C 187.867188 232.5 187.078125 232.996094 186.203125 233.238281 C 185.804688 233.351562 185.382812 233.410156 184.953125 233.410156 C 184.914062 233.410156 184.875 233.410156 184.835938 233.410156 C 184.636719 233.40625 184.445312 233.382812 184.253906 233.355469 C 183.59375 233.257812 182.984375 233.023438 182.433594 232.679688 C 181.761719 232.257812 181.1875 231.664062 180.742188 230.945312 C 180.296875 230.222656 179.988281 229.367188 179.859375 228.417969 L 179.527344 225.964844 L 178.726562 220.039062 L 178.027344 214.894531 L 177.402344 210.265625 L 176.820312 205.996094 L 176.277344 201.992188 L 175.769531 198.242188 L 175.285156 194.675781 L 174.824219 191.265625 L 174.382812 187.996094 L 173.957031 184.855469 L 173.546875 181.824219 L 173.148438 178.894531 L 172.765625 176.066406 L 172.390625 173.320312 L 172.035156 170.660156 L 171.683594 168.078125 L 171.34375 165.570312 L 171.011719 163.132812 L 170.925781 162.484375 L 170.828125 163.230469 L 170.457031 166.09375 L 170.058594 169.167969 L 169.628906 172.46875 L 169.164062 176.078125 L 168.648438 180.039062 L 168.460938 181.476562 C 168.109375 184.195312 166.222656 186.21875 163.878906 186.476562 C 163.714844 186.496094 163.542969 186.507812 163.371094 186.507812 L 113.957031 186.507812 C 118.359375 200.375 128.058594 215.855469 145.601562 233.207031 C 145.890625 233.492188 146.183594 233.78125 146.476562 234.066406 C 146.757812 234.34375 147.042969 234.621094 147.332031 234.902344"/><path fill="#5271FF" d="M 183.945312 136.675781 C 184.246094 137.007812 184.546875 137.339844 184.847656 137.679688 C 185.152344 138.023438 185.457031 138.371094 185.761719 138.722656 C 186.074219 139.082031 186.382812 139.445312 186.695312 139.808594 C 186.957031 140.121094 187.222656 140.433594 187.492188 140.753906 C 187.542969 140.691406 187.59375 140.632812 187.644531 140.570312 C 187.683594 140.527344 187.71875 140.484375 187.753906 140.441406 C 187.765625 140.425781 187.78125 140.410156 187.796875 140.394531 C 187.617188 140.21875 187.4375 140.042969 187.261719 139.871094 C 186.699219 139.289062 186.136719 138.722656 185.566406 138.175781 C 185.007812 137.597656 184.445312 137.03125 183.875 136.484375 C 183.316406 135.90625 182.753906 135.34375 182.183594 134.792969 C 182.476562 135.097656 182.769531 135.402344 183.058594 135.710938 C 183.355469 136.03125 183.652344 136.351562 183.945312 136.675781"/><path fill="#5271FF" d="M 332.699219 214.972656 C 332.148438 214.382812 331.578125 213.824219 331.003906 213.277344 C 330.453125 212.691406 329.886719 212.128906 329.3125 211.585938 C 328.761719 211 328.195312 210.441406 327.621094 209.894531 C 327.070312 209.304688 326.503906 208.75 325.929688 208.203125 C 325.378906 207.613281 324.8125 207.054688 324.238281 206.511719 C 323.6875 205.921875 323.121094 205.363281 322.546875 204.820312 C 321.996094 204.230469 321.429688 203.671875 320.855469 203.128906 C 320.304688 202.539062 319.738281 201.980469 319.164062 201.4375 C 318.613281 200.847656 318.042969 200.289062 317.46875 199.742188 C 316.917969 199.15625 316.351562 198.59375 315.78125 198.054688 C 315.226562 197.464844 314.660156 196.90625 314.089844 196.363281 C 313.535156 195.769531 312.96875 195.214844 312.394531 194.667969 C 311.84375 194.082031 311.277344 193.519531 310.703125 192.976562 C 310.152344 192.390625 309.585938 191.828125 309.011719 191.285156 C 308.460938 190.695312 307.894531 190.136719 307.320312 189.59375 C 306.769531 189.003906 306.203125 188.445312 305.628906 187.902344 C 305.078125 187.3125 304.507812 186.753906 303.9375 186.210938 C 303.382812 185.621094 302.820312 185.0625 302.246094 184.519531 C 301.695312 183.929688 301.128906 183.371094 300.554688 182.828125 C 300.003906 182.234375 299.433594 181.679688 298.859375 181.132812 C 298.308594 180.546875 297.742188 179.984375 297.167969 179.441406 C 296.617188 178.855469 296.050781 178.292969 295.480469 177.75 C 294.925781 177.160156 294.359375 176.605469 293.785156 176.058594 C 293.234375 175.46875 292.667969 174.910156 292.09375 174.367188 C 291.542969 173.777344 290.976562 173.21875 290.402344 172.675781 C 289.851562 172.085938 289.285156 171.527344 288.710938 170.984375 C 288.160156 170.394531 287.59375 169.835938 287.019531 169.292969 C 286.46875 168.703125 285.898438 168.144531 285.324219 167.597656 C 284.773438 167.011719 284.207031 166.453125 283.632812 165.90625 C 283.082031 165.320312 282.515625 164.761719 281.945312 164.214844 C 281.390625 163.625 280.824219 163.070312 280.25 162.523438 C 279.699219 161.933594 279.132812 161.375 278.558594 160.832031 C 278.007812 160.242188 277.441406 159.683594 276.867188 159.140625 C 276.316406 158.550781 275.75 157.992188 275.175781 157.449219 C 274.625 156.859375 274.058594 156.300781 273.484375 155.757812 C 272.933594 155.167969 272.363281 154.609375 271.789062 154.0625 C 271.238281 153.476562 270.671875 152.917969 270.101562 152.371094 C 269.546875 151.785156 268.984375 151.226562 268.410156 150.683594 C 267.855469 150.089844 267.289062 149.535156 266.714844 148.988281 C 266.164062 148.402344 265.597656 147.839844 265.023438 147.296875 C 264.472656 146.710938 263.90625 146.148438 263.332031 145.605469 C 262.78125 145.015625 262.214844 144.457031 261.640625 143.914062 C 261.089844 143.324219 260.523438 142.765625 259.949219 142.222656 C 259.398438 141.632812 258.832031 141.074219 258.257812 140.53125 C 257.707031 139.941406 257.140625 139.382812 256.566406 138.839844 C 256.015625 138.25 255.449219 137.691406 254.875 137.148438 C 254.324219 136.558594 253.753906 136 253.179688 135.453125 C 252.628906 134.867188 252.0625 134.304688 251.488281 133.761719 C 251.722656 134.011719 251.949219 134.273438 252.179688 134.527344 C 252.449219 134.835938 252.71875 135.144531 252.988281 135.464844 C 253.257812 135.789062 253.527344 136.109375 253.789062 136.445312 C 254.03125 136.75 254.265625 137.070312 254.503906 137.386719 C 254.746094 137.714844 254.984375 138.042969 255.21875 138.382812 C 255.464844 138.730469 255.707031 139.078125 255.945312 139.4375 C 256.167969 139.78125 256.386719 140.136719 256.601562 140.492188 C 256.824219 140.851562 257.042969 141.214844 257.253906 141.582031 C 257.46875 141.953125 257.6875 142.328125 257.890625 142.710938 C 258.097656 143.089844 258.292969 143.480469 258.488281 143.871094 C 258.6875 144.265625 258.882812 144.664062 259.070312 145.070312 C 259.261719 145.476562 259.453125 145.882812 259.632812 146.300781 C 259.8125 146.714844 259.980469 147.136719 260.148438 147.558594 C 260.324219 147.992188 260.492188 148.425781 260.652344 148.871094 C 260.816406 149.320312 260.984375 149.769531 261.136719 150.230469 C 261.289062 150.6875 261.429688 151.15625 261.574219 151.625 C 261.71875 152.101562 261.859375 152.582031 261.992188 153.070312 C 262.128906 153.566406 262.261719 154.0625 262.386719 154.570312 C 262.507812 155.078125 262.621094 155.597656 262.730469 156.121094 C 262.839844 156.636719 262.941406 157.164062 263.035156 157.695312 C 263.136719 158.222656 263.230469 158.757812 263.3125 159.296875 C 263.394531 159.835938 263.46875 160.378906 263.539062 160.929688 C 263.609375 161.472656 263.664062 162.03125 263.722656 162.589844 C 263.757812 162.96875 263.804688 163.34375 263.835938 163.730469 L 263.835938 172.460938 C 263.804688 172.855469 263.757812 173.253906 263.71875 173.652344 C 263.648438 174.359375 263.5625 175.074219 263.464844 175.796875 C 263.359375 176.558594 263.242188 177.328125 263.105469 178.101562 C 262.960938 178.929688 262.792969 179.761719 262.609375 180.601562 C 262.542969 180.914062 262.484375 181.222656 262.410156 181.53125 L 260.53125 181.539062 L 255.78125 181.554688 L 251.59375 181.566406 L 247.765625 181.582031 L 244.164062 181.59375 L 240.722656 181.605469 L 237.402344 181.617188 L 234.160156 181.625 L 230.984375 181.636719 L 229.046875 181.644531 L 228.390625 181.644531 L 227.632812 181.648438 L 226.347656 181.652344 L 225.464844 181.65625 C 225.441406 181.617188 225.417969 181.566406 225.394531 181.5 L 225.257812 181.128906 L 224.867188 180.0625 L 224.511719 179.09375 L 224.191406 178.226562 L 224.121094 178.035156 C 224.042969 177.828125 223.953125 177.628906 223.859375 177.433594 C 223.71875 177.144531 223.5625 176.875 223.386719 176.621094 C 222.621094 175.53125 221.546875 174.792969 220.332031 174.546875 C 219.917969 174.460938 219.484375 174.429688 219.039062 174.464844 C 218.953125 174.472656 218.867188 174.484375 218.785156 174.496094 C 218.28125 174.558594 217.796875 174.699219 217.351562 174.914062 C 216.914062 175.121094 216.511719 175.398438 216.148438 175.726562 C 215.796875 176.050781 215.480469 176.421875 215.21875 176.847656 C 214.964844 177.25 214.753906 177.699219 214.59375 178.183594 C 214.503906 178.449219 214.425781 178.722656 214.371094 179.007812 L 214.238281 179.667969 L 213.917969 181.242188 L 213.589844 182.886719 L 213.242188 184.601562 L 212.878906 186.386719 L 212.511719 188.226562 L 212.125 190.136719 L 211.707031 192.191406 L 211.261719 194.410156 L 210.917969 196.109375 L 210.578125 194.613281 L 210.113281 192.570312 L 209.660156 190.578125 L 209.21875 188.636719 L 208.789062 186.746094 L 208.371094 184.90625 L 207.960938 183.105469 L 207.558594 181.328125 L 207.15625 179.566406 L 206.761719 177.828125 L 206.375 176.117188 L 205.992188 174.4375 L 205.277344 171.292969 C 205.269531 171.253906 205.257812 171.214844 205.246094 171.171875 C 205.101562 170.585938 204.886719 170.046875 204.617188 169.5625 C 204.242188 168.894531 203.761719 168.332031 203.199219 167.898438 C 202.351562 167.242188 201.320312 166.878906 200.210938 166.894531 C 199.296875 166.914062 198.449219 167.1875 197.71875 167.664062 C 197.042969 168.101562 196.46875 168.714844 196.035156 169.460938 C 195.710938 170.019531 195.46875 170.644531 195.316406 171.332031 C 195.300781 171.40625 195.28125 171.480469 195.265625 171.558594 L 194.953125 173.246094 L 194.570312 175.320312 L 194.15625 177.542969 L 193.710938 179.941406 L 193.234375 182.503906 L 192.71875 185.28125 L 192.167969 188.261719 L 191.5625 191.515625 L 190.898438 195.082031 L 190.164062 199.050781 L 189.324219 203.570312 L 188.328125 208.941406 L 187 216.082031 L 184.960938 227.0625 L 184.402344 222.929688 L 183.75 218.117188 L 183.15625 213.714844 L 182.601562 209.632812 L 182.078125 205.785156 L 181.585938 202.132812 L 181.117188 198.671875 L 180.664062 195.355469 L 180.234375 192.167969 L 179.816406 189.097656 L 179.417969 186.132812 L 179.027344 183.265625 L 178.648438 180.488281 L 178.285156 177.792969 L 177.933594 175.179688 L 177.589844 172.644531 L 177.253906 170.179688 L 176.929688 167.785156 L 176.617188 165.460938 L 176.308594 163.203125 L 176.011719 161.011719 L 176.007812 160.980469 C 175.90625 160.25 175.703125 159.570312 175.414062 158.96875 C 175.074219 158.265625 174.613281 157.660156 174.066406 157.183594 C 173.203125 156.429688 172.117188 155.992188 170.921875 155.992188 C 170.917969 155.992188 170.914062 155.992188 170.910156 155.992188 C 170.851562 155.992188 170.796875 155.996094 170.738281 155.996094 C 169.636719 156.039062 168.632812 156.453125 167.820312 157.144531 C 166.835938 157.984375 166.140625 159.226562 165.882812 160.71875 C 165.863281 160.820312 165.847656 160.917969 165.832031 161.019531 L 165.480469 163.738281 L 165.054688 167 L 164.597656 170.523438 L 164.101562 174.371094 L 163.539062 178.6875 L 163.265625 180.800781 C 163.238281 181.023438 163.175781 181.175781 163.121094 181.265625 L 113.859375 181.265625 C 113.972656 181.828125 114.085938 182.390625 114.214844 182.957031 L 115.550781 182.957031 C 115.664062 183.519531 115.777344 184.082031 115.90625 184.648438 L 117.242188 184.648438 C 117.355469 185.210938 117.46875 185.773438 117.601562 186.34375 L 118.9375 186.34375 C 118.945312 186.394531 118.960938 186.453125 118.96875 186.507812 L 163.371094 186.507812 C 163.542969 186.507812 163.714844 186.496094 163.878906 186.476562 C 166.222656 186.21875 168.109375 184.195312 168.460938 181.476562 L 168.648438 180.039062 L 169.164062 176.078125 L 169.628906 172.46875 L 170.058594 169.167969 L 170.457031 166.09375 L 170.828125 163.230469 L 170.925781 162.484375 L 171.011719 163.132812 L 171.34375 165.570312 L 171.683594 168.078125 L 172.035156 170.660156 L 172.390625 173.320312 L 172.765625 176.066406 L 173.148438 178.894531 L 173.546875 181.824219 L 173.957031 184.855469 L 174.382812 187.996094 L 174.824219 191.265625 L 175.285156 194.675781 L 175.769531 198.242188 L 176.277344 201.992188 L 176.820312 205.996094 L 177.402344 210.265625 L 178.027344 214.894531 L 178.726562 220.039062 L 179.527344 225.964844 L 179.859375 228.417969 C 179.988281 229.367188 180.296875 230.222656 180.742188 230.945312 C 181.1875 231.664062 181.761719 232.257812 182.433594 232.679688 C 182.984375 233.023438 183.59375 233.257812 184.253906 233.355469 C 184.445312 233.382812 184.636719 233.40625 184.835938 233.410156 C 184.875 233.410156 184.914062 233.410156 184.953125 233.410156 C 185.382812 233.410156 185.804688 233.351562 186.203125 233.238281 C 187.078125 232.996094 187.867188 232.5 188.5 231.808594 C 189.226562 231.015625 189.753906 229.964844 189.976562 228.746094 L 190.863281 223.976562 L 192.417969 215.597656 L 193.496094 209.792969 L 194.382812 205.015625 L 195.148438 200.882812 L 195.835938 197.199219 L 196.457031 193.847656 L 197.03125 190.765625 L 197.554688 187.933594 L 198.042969 185.292969 L 198.5 182.84375 L 198.921875 180.558594 L 199.316406 178.445312 L 199.683594 176.46875 L 200.03125 174.605469 L 200.3125 173.082031 L 200.648438 174.566406 L 201.054688 176.351562 L 201.464844 178.152344 L 201.882812 179.996094 L 202.316406 181.894531 L 202.757812 183.839844 L 203.210938 185.839844 L 203.675781 187.890625 L 204.152344 189.984375 L 204.640625 192.125 L 205.140625 194.324219 L 205.648438 196.566406 L 205.945312 197.878906 C 206.019531 198.207031 206.117188 198.523438 206.234375 198.824219 C 206.527344 199.578125 206.945312 200.234375 207.453125 200.769531 C 208.09375 201.4375 208.882812 201.90625 209.765625 202.128906 C 210.15625 202.226562 210.558594 202.28125 210.980469 202.277344 C 212.679688 202.257812 214.167969 201.34375 215.089844 199.867188 C 215.480469 199.246094 215.773438 198.519531 215.9375 197.71875 L 215.992188 197.441406 L 216.417969 195.332031 L 216.816406 193.367188 L 217.191406 191.511719 L 217.554688 189.707031 L 217.90625 187.964844 L 218.246094 186.289062 L 218.570312 184.691406 L 218.875 183.171875 L 219.164062 181.730469 L 219.425781 180.445312 L 219.945312 181.863281 L 220.480469 183.308594 C 220.484375 183.332031 220.496094 183.351562 220.507812 183.371094 C 220.730469 183.96875 221.042969 184.496094 221.40625 184.960938 C 222.363281 186.167969 223.730469 186.894531 225.214844 186.894531 C 225.21875 186.894531 225.226562 186.894531 225.230469 186.894531 L 229.539062 186.882812 L 231.71875 186.875 L 232.941406 186.871094 L 233.65625 186.867188 L 234.054688 186.863281 L 234.261719 186.863281 L 235.9375 186.859375 L 239.105469 186.847656 L 242.339844 186.839844 L 245.65625 186.828125 L 249.082031 186.816406 L 252.667969 186.804688 L 256.476562 186.792969 L 260.621094 186.777344 L 260.949219 186.777344 C 260.578125 187.933594 260.164062 189.101562 259.71875 190.285156 C 259.109375 191.882812 258.4375 193.5 257.683594 195.140625 C 256.542969 197.628906 255.234375 200.164062 253.742188 202.75 C 253.3125 203.492188 252.867188 204.242188 252.40625 205 C 252.398438 205.011719 252.390625 205.027344 252.382812 205.039062 C 252.355469 205.082031 252.332031 205.125 252.304688 205.167969 C 252.253906 205.246094 252.210938 205.320312 252.160156 205.398438 C 252.089844 205.511719 252.019531 205.625 251.949219 205.742188 C 251.851562 205.894531 251.753906 206.054688 251.65625 206.207031 C 251.527344 206.410156 251.40625 206.609375 251.277344 206.808594 C 251.117188 207.054688 250.960938 207.300781 250.800781 207.546875 C 250.609375 207.839844 250.414062 208.132812 250.222656 208.425781 C 249.992188 208.769531 249.765625 209.113281 249.53125 209.453125 C 249.265625 209.84375 248.996094 210.238281 248.726562 210.628906 C 248.421875 211.066406 248.109375 211.507812 247.796875 211.949219 C 247.445312 212.433594 247.09375 212.921875 246.730469 213.414062 C 246.335938 213.953125 245.933594 214.488281 245.523438 215.027344 C 245.078125 215.617188 244.621094 216.203125 244.15625 216.792969 C 243.65625 217.429688 243.148438 218.066406 242.628906 218.710938 C 242.042969 219.425781 241.445312 220.148438 240.835938 220.871094 C 240.054688 221.796875 239.253906 222.730469 238.421875 223.667969 C 237.238281 225.007812 236.007812 226.363281 234.722656 227.730469 C 230.339844 232.40625 225.378906 237.21875 219.789062 242.183594 C 218.28125 243.519531 216.730469 244.863281 215.132812 246.21875 C 214.035156 247.15625 212.914062 248.09375 211.769531 249.039062 C 210.851562 249.792969 209.921875 250.554688 208.976562 251.316406 C 208.179688 251.957031 207.371094 252.601562 206.558594 253.25 C 205.84375 253.8125 205.125 254.378906 204.398438 254.945312 C 203.78125 255.429688 203.152344 255.910156 202.523438 256.398438 C 201.964844 256.828125 201.402344 257.257812 200.832031 257.691406 C 200.269531 258.117188 199.707031 258.542969 199.140625 258.96875 C 198.625 259.359375 198.109375 259.746094 197.582031 260.136719 C 197.136719 260.46875 196.679688 260.808594 196.226562 261.144531 C 195.8125 261.449219 195.394531 261.753906 194.980469 262.058594 C 194.789062 262.195312 194.597656 262.335938 194.410156 262.472656 C 194.335938 262.53125 194.261719 262.585938 194.1875 262.636719 C 193.414062 263.199219 192.636719 263.761719 191.851562 264.332031 C 191.832031 264.34375 191.816406 264.355469 191.796875 264.367188 C 191.496094 264.582031 191.195312 264.800781 190.894531 265.015625 C 190.613281 265.210938 190.339844 265.410156 190.058594 265.609375 C 189.804688 265.789062 189.546875 265.972656 189.289062 266.15625 C 189.054688 266.324219 188.816406 266.488281 188.582031 266.65625 C 188.363281 266.808594 188.144531 266.964844 187.925781 267.117188 C 187.78125 267.21875 187.636719 267.320312 187.492188 267.425781 C 187.367188 267.335938 187.246094 267.253906 187.125 267.167969 C 186.699219 266.867188 186.28125 266.570312 185.863281 266.273438 C 185.441406 265.976562 185.019531 265.679688 184.605469 265.382812 C 184.1875 265.085938 183.769531 264.789062 183.359375 264.492188 C 182.945312 264.195312 182.535156 263.898438 182.125 263.601562 C 181.714844 263.304688 181.304688 263.007812 180.902344 262.714844 C 180.496094 262.417969 180.089844 262.121094 179.6875 261.824219 C 179.28125 261.53125 178.882812 261.230469 178.480469 260.9375 C 178.085938 260.644531 177.6875 260.351562 177.292969 260.058594 C 176.894531 259.761719 176.503906 259.464844 176.109375 259.167969 C 175.714844 258.875 175.324219 258.582031 174.933594 258.285156 C 174.546875 257.992188 174.160156 257.699219 173.78125 257.40625 C 173.394531 257.113281 173.011719 256.820312 172.628906 256.527344 C 172.246094 256.234375 171.863281 255.941406 171.488281 255.648438 C 171.109375 255.355469 170.734375 255.0625 170.359375 254.769531 C 169.984375 254.476562 169.613281 254.183594 169.246094 253.894531 C 168.871094 253.601562 168.5 253.308594 168.132812 253.015625 C 167.765625 252.722656 167.402344 252.433594 167.035156 252.140625 C 166.675781 251.851562 166.3125 251.5625 165.957031 251.273438 C 165.59375 250.980469 165.230469 250.6875 164.875 250.398438 C 164.515625 250.105469 164.164062 249.816406 163.8125 249.527344 C 163.460938 249.238281 163.109375 248.949219 162.765625 248.664062 C 162.410156 248.371094 162.0625 248.078125 161.710938 247.785156 C 161.367188 247.496094 161.023438 247.210938 160.679688 246.921875 C 160.339844 246.636719 160 246.347656 159.664062 246.0625 C 159.320312 245.769531 158.980469 245.480469 158.644531 245.1875 C 158.3125 244.902344 157.976562 244.617188 157.648438 244.332031 C 157.316406 244.042969 156.988281 243.757812 156.660156 243.46875 C 156.328125 243.179688 156 242.890625 155.671875 242.601562 C 155.351562 242.316406 155.03125 242.035156 154.714844 241.753906 C 154.390625 241.464844 154.070312 241.175781 153.753906 240.886719 C 153.429688 240.601562 153.113281 240.3125 152.796875 240.023438 C 152.488281 239.742188 152.175781 239.460938 151.871094 239.179688 C 151.558594 238.890625 151.25 238.605469 150.941406 238.316406 C 150.632812 238.03125 150.324219 237.746094 150.019531 237.460938 C 149.71875 237.179688 149.421875 236.898438 149.125 236.617188 C 148.820312 236.328125 148.523438 236.042969 148.226562 235.761719 C 147.929688 235.472656 147.628906 235.1875 147.332031 234.902344 C 147.042969 234.621094 146.757812 234.34375 146.476562 234.066406 C 146.183594 233.78125 145.890625 233.492188 145.601562 233.207031 C 146.160156 233.769531 146.722656 234.332031 147.296875 234.898438 C 147.851562 235.460938 148.414062 236.023438 148.984375 236.589844 C 149.539062 237.152344 150.105469 237.71875 150.675781 238.28125 C 151.234375 238.84375 151.796875 239.410156 152.371094 239.976562 C 152.925781 240.535156 153.488281 241.101562 154.0625 241.667969 C 154.617188 242.230469 155.183594 242.792969 155.757812 243.359375 C 156.308594 243.921875 156.871094 244.484375 157.445312 245.046875 C 158 245.609375 158.5625 246.175781 159.136719 246.742188 C 159.695312 247.304688 160.257812 247.867188 160.832031 248.433594 C 161.386719 248.996094 161.949219 249.558594 162.519531 250.125 C 163.078125 250.6875 163.640625 251.253906 164.214844 251.820312 C 164.769531 252.378906 165.332031 252.941406 165.90625 253.507812 C 166.460938 254.070312 167.023438 254.632812 167.597656 255.203125 C 168.152344 255.765625 168.71875 256.328125 169.289062 256.894531 C 169.84375 257.457031 170.410156 258.019531 170.980469 258.582031 C 171.535156 259.144531 172.101562 259.710938 172.671875 260.277344 C 173.230469 260.839844 173.792969 261.402344 174.363281 261.964844 C 174.917969 262.53125 175.484375 263.09375 176.054688 263.660156 C 176.609375 264.222656 177.175781 264.789062 177.746094 265.351562 C 178.304688 265.914062 178.867188 266.476562 179.441406 267.042969 C 179.996094 267.605469 180.558594 268.167969 181.132812 268.738281 C 181.6875 269.296875 182.25 269.863281 182.820312 270.425781 C 183.378906 270.988281 183.941406 271.554688 184.515625 272.117188 C 185.070312 272.679688 185.632812 273.246094 186.207031 273.8125 C 186.765625 274.375 187.328125 274.9375 187.898438 275.503906 C 188.453125 276.066406 189.019531 276.628906 189.589844 277.195312 C 190.144531 277.757812 190.707031 278.320312 191.28125 278.886719 C 191.835938 279.449219 192.402344 280.011719 192.972656 280.578125 C 193.53125 281.140625 194.09375 281.703125 194.667969 282.273438 C 195.222656 282.832031 195.785156 283.398438 196.355469 283.960938 C 196.914062 284.523438 197.476562 285.089844 198.050781 285.65625 C 198.605469 286.214844 199.167969 286.777344 199.738281 287.34375 C 200.292969 287.90625 200.863281 288.472656 201.433594 289.039062 C 201.988281 289.601562 202.554688 290.164062 203.125 290.730469 C 203.679688 291.292969 204.242188 291.855469 204.816406 292.421875 C 205.375 292.984375 205.9375 293.546875 206.511719 294.113281 C 207.066406 294.675781 207.628906 295.238281 208.199219 295.804688 C 208.753906 296.363281 209.320312 296.929688 209.890625 297.496094 C 210.449219 298.058594 211.011719 298.625 211.585938 299.1875 C 212.140625 299.75 212.703125 300.3125 213.277344 300.882812 C 213.832031 301.445312 214.398438 302.007812 214.96875 302.574219 C 215.523438 303.136719 216.089844 303.699219 216.660156 304.261719 C 217.214844 304.824219 217.777344 305.390625 218.351562 305.957031 C 218.910156 306.519531 219.472656 307.082031 220.046875 307.648438 C 220.597656 308.210938 221.160156 308.773438 221.734375 309.335938 C 222.289062 309.898438 222.855469 310.46875 223.429688 311.035156 C 223.984375 311.59375 224.546875 312.160156 225.121094 312.722656 C 225.675781 313.285156 226.238281 313.847656 226.8125 314.414062 C 227.367188 314.980469 227.933594 315.542969 228.503906 316.109375 C 229.058594 316.667969 229.621094 317.230469 230.191406 317.796875 C 230.75 318.359375 231.3125 318.925781 231.886719 319.492188 C 232.445312 320.054688 233.007812 320.617188 233.578125 321.183594 C 234.132812 321.746094 234.699219 322.308594 235.269531 322.875 C 235.824219 323.4375 236.390625 324.003906 236.960938 324.566406 C 237.519531 325.128906 238.082031 325.691406 238.652344 326.257812 C 239.199219 326.808594 239.757812 327.367188 240.320312 327.921875 C 240.332031 327.921875 240.335938 327.917969 240.347656 327.914062 C 240.367188 327.90625 240.386719 327.898438 240.40625 327.894531 C 240.433594 327.882812 240.464844 327.871094 240.492188 327.859375 C 240.53125 327.84375 240.570312 327.828125 240.605469 327.816406 C 240.65625 327.796875 240.707031 327.777344 240.757812 327.757812 C 240.816406 327.734375 240.875 327.710938 240.933594 327.691406 C 241.007812 327.664062 241.078125 327.636719 241.148438 327.609375 C 241.234375 327.578125 241.316406 327.546875 241.398438 327.515625 C 241.492188 327.476562 241.585938 327.441406 241.679688 327.40625 C 241.785156 327.367188 241.894531 327.328125 242 327.285156 C 242.117188 327.242188 242.234375 327.195312 242.355469 327.152344 C 242.484375 327.097656 242.617188 327.046875 242.746094 326.996094 C 242.890625 326.9375 243.03125 326.878906 243.175781 326.820312 C 243.332031 326.757812 243.488281 326.691406 243.644531 326.628906 C 243.816406 326.558594 243.988281 326.488281 244.160156 326.417969 C 244.34375 326.339844 244.53125 326.265625 244.71875 326.1875 C 244.917969 326.105469 245.117188 326.027344 245.320312 325.941406 C 245.539062 325.855469 245.757812 325.765625 245.972656 325.671875 C 246.207031 325.574219 246.4375 325.46875 246.667969 325.371094 C 246.917969 325.261719 247.164062 325.152344 247.414062 325.042969 C 247.683594 324.929688 247.949219 324.8125 248.21875 324.695312 C 248.503906 324.566406 248.792969 324.445312 249.074219 324.316406 C 249.382812 324.179688 249.683594 324.035156 249.988281 323.894531 C 251.421875 323.238281 252.84375 322.554688 254.253906 321.851562 C 254.273438 321.84375 254.292969 321.835938 254.3125 321.824219 C 254.734375 321.613281 255.15625 321.410156 255.578125 321.195312 C 256.027344 320.964844 256.472656 320.726562 256.921875 320.492188 C 257.402344 320.242188 257.886719 319.988281 258.363281 319.730469 C 258.925781 319.429688 259.484375 319.121094 260.046875 318.8125 C 260.609375 318.496094 261.179688 318.183594 261.738281 317.863281 C 262.304688 317.539062 262.867188 317.210938 263.429688 316.878906 C 264.058594 316.507812 264.691406 316.140625 265.3125 315.765625 C 266.019531 315.335938 266.714844 314.894531 267.410156 314.457031 C 268.183594 313.964844 268.953125 313.46875 269.71875 312.96875 C 270.574219 312.40625 271.425781 311.835938 272.269531 311.257812 C 273.257812 310.578125 274.238281 309.886719 275.210938 309.183594 C 276.429688 308.304688 277.628906 307.410156 278.816406 306.5 C 280.566406 305.152344 282.289062 303.765625 283.980469 302.347656 C 288.179688 298.8125 292.1875 295.0625 295.976562 291.097656 C 297.378906 289.628906 298.746094 288.128906 300.089844 286.601562 C 300.945312 285.628906 301.792969 284.644531 302.625 283.648438 C 303.253906 282.898438 303.875 282.136719 304.488281 281.371094 C 305.007812 280.730469 305.519531 280.082031 306.027344 279.429688 C 306.488281 278.835938 306.949219 278.238281 307.402344 277.632812 C 307.8125 277.085938 308.21875 276.535156 308.621094 275.984375 C 308.992188 275.480469 309.359375 274.984375 309.722656 274.476562 C 310.042969 274.027344 310.355469 273.570312 310.671875 273.113281 C 310.953125 272.710938 311.234375 272.308594 311.511719 271.902344 C 311.75 271.550781 311.992188 271.195312 312.230469 270.839844 C 312.429688 270.535156 312.628906 270.230469 312.832031 269.921875 C 313 269.667969 313.171875 269.410156 313.339844 269.152344 C 313.476562 268.941406 313.617188 268.738281 313.753906 268.523438 C 313.859375 268.359375 313.964844 268.191406 314.070312 268.027344 C 314.148438 267.90625 314.222656 267.777344 314.300781 267.65625 C 314.355469 267.570312 314.40625 267.484375 314.460938 267.402344 C 314.492188 267.351562 314.523438 267.300781 314.554688 267.25 C 314.566406 267.230469 314.578125 267.210938 314.59375 267.191406 C 316.441406 264.246094 318.195312 261.230469 319.84375 258.152344 C 320.820312 256.328125 321.765625 254.480469 322.667969 252.613281 C 323.3125 251.28125 323.929688 249.933594 324.535156 248.578125 C 325.019531 247.492188 325.492188 246.398438 325.953125 245.300781 C 326.34375 244.363281 326.730469 243.429688 327.101562 242.484375 C 327.425781 241.667969 327.734375 240.839844 328.039062 240.015625 C 328.320312 239.269531 328.589844 238.519531 328.859375 237.769531 C 329.101562 237.082031 329.351562 236.398438 329.585938 235.707031 C 329.800781 235.070312 330.003906 234.425781 330.210938 233.785156 C 330.40625 233.183594 330.605469 232.582031 330.792969 231.972656 C 330.972656 231.40625 331.136719 230.832031 331.304688 230.257812 C 331.46875 229.714844 331.636719 229.171875 331.792969 228.625 C 331.941406 228.101562 332.078125 227.574219 332.21875 227.046875 C 332.359375 226.542969 332.5 226.039062 332.632812 225.53125 C 332.753906 225.0625 332.871094 224.589844 332.992188 224.117188 C 333.097656 223.691406 333.203125 223.261719 333.304688 222.832031 C 333.394531 222.445312 333.496094 222.0625 333.585938 221.679688 C 333.664062 221.335938 333.742188 220.988281 333.816406 220.644531 C 333.886719 220.339844 333.953125 220.03125 334.019531 219.722656 C 334.074219 219.460938 334.132812 219.195312 334.191406 218.933594 C 334.238281 218.710938 334.289062 218.488281 334.335938 218.261719 C 334.375 218.078125 334.417969 217.894531 334.457031 217.710938 C 334.484375 217.570312 334.507812 217.429688 334.539062 217.289062 C 334.554688 217.199219 334.574219 217.105469 334.589844 217.011719 C 334.597656 216.964844 334.609375 216.921875 334.617188 216.875 C 334.542969 216.804688 334.464844 216.734375 334.390625 216.664062 C 333.839844 216.074219 333.273438 215.515625 332.699219 214.972656"/></svg>