<svg xmlns="http://www.w3.org/2000/svg" width="810" viewBox="0 0 810 810" height="810" version="1.0"><defs><clipPath id="a"><path d="M 81.128906 176.039062 L 728.867188 176.039062 L 728.867188 629.566406 L 81.128906 629.566406 Z M 81.128906 176.039062"/></clipPath><clipPath id="b"><path d="M 208.777344 625.128906 L 288.554688 625.128906 L 288.554688 634.289062 L 208.777344 634.289062 Z M 208.777344 625.128906"/></clipPath><clipPath id="c"><path d="M 298.304688 625.128906 L 377.863281 625.128906 L 377.863281 634.289062 L 298.304688 634.289062 Z M 298.304688 625.128906"/></clipPath></defs><g clip-path="url(#a)"><path fill="#F2ECEB" d="M 135.660156 509.355469 C 126.042969 504.175781 115.078125 505.625 105.507812 500.832031 C 96.359375 496.25 88.667969 489.503906 84.777344 479.480469 C 82.039062 472.417969 81.417969 464.675781 81.183594 457.058594 C 80.121094 422.335938 94.90625 388.855469 109.476562 358.289062 C 123.925781 327.964844 142.34375 299.46875 166.164062 276.273438 C 174.632812 268.03125 184.023438 260.324219 195.09375 256.769531 C 206.167969 253.210938 219.257812 254.496094 227.828125 262.625 C 236.152344 270.523438 238.804688 283.105469 246.109375 292.03125 C 262.054688 311.519531 292.671875 306.140625 313.804688 293.070312 C 353.222656 268.699219 378.734375 225.710938 415.441406 197.113281 C 435.394531 181.574219 461.582031 170.292969 484.984375 179.171875 C 500.6875 185.128906 512.515625 199.5 518.933594 215.585938 C 525.347656 231.671875 526.914062 249.414062 526.953125 266.839844 C 527.007812 292.410156 525.660156 322.339844 544.703125 338.449219 C 564.855469 355.496094 594.878906 345.808594 617.878906 333.285156 C 640.878906 320.757812 666.574219 305.585938 691.191406 314.15625 C 707.550781 319.851562 719.4375 335.515625 724.714844 352.632812 C 729.996094 369.753906 729.488281 388.234375 727.328125 406.074219 C 722.523438 445.765625 709.46875 484.265625 689.777344 518.574219 C 670.144531 552.78125 638.371094 578.269531 607.070312 600.601562 C 590.699219 612.28125 573.210938 623.03125 553.816406 627.40625 C 528.871094 633.03125 502.164062 626.308594 481.347656 611.253906 C 461.164062 596.65625 451.492188 570.507812 430.046875 557.738281 C 405.9375 543.386719 376.269531 558.992188 352.066406 573.167969 C 328.519531 586.957031 304.359375 599.609375 279.695312 611.074219 C 256.839844 621.695312 230.921875 631.398438 207.371094 622.585938 C 185.550781 614.421875 171.324219 591.890625 164.683594 568.730469 C 158.382812 546.761719 155.199219 519.875 135.660156 509.355469"/></g><path fill="#231F20" d="M 405.957031 209.414062 L 405.957031 350.46875 L 165.953125 350.46875 L 165.953125 209.414062 L 405.957031 209.414062"/><path fill="#D1C2BA" d="M 175.777344 242.945312 L 172.3125 242.945312 L 172.3125 239.476562 L 175.777344 239.476562 L 175.777344 242.945312"/><path fill="#F2ECEB" d="M 186.75 242.945312 L 178.972656 242.945312 L 178.972656 239.476562 L 186.75 239.476562 L 186.75 242.945312"/><path fill="#D1C2BA" d="M 202.183594 242.945312 L 190.734375 242.945312 L 190.734375 239.476562 L 202.183594 239.476562 L 202.183594 242.945312"/><path fill="#D1C2BA" d="M 265.175781 242.945312 L 252.789062 242.945312 L 252.789062 239.476562 L 265.175781 239.476562 L 265.175781 242.945312"/><path fill="#D1C2BA" d="M 237.042969 242.945312 L 214.574219 242.945312 L 214.574219 239.476562 L 237.042969 239.476562 L 237.042969 242.945312"/><path fill="#D1C2BA" d="M 212.054688 242.945312 L 204.171875 242.945312 L 204.171875 239.476562 L 212.054688 239.476562 L 212.054688 242.945312"/><path fill="#D1C2BA" d="M 249.015625 242.945312 L 241.136719 242.945312 L 241.136719 239.476562 L 249.015625 239.476562 L 249.015625 242.945312"/><path fill="#F2ECEB" d="M 331.042969 242.945312 L 325.761719 242.945312 L 325.761719 239.476562 L 331.042969 239.476562 L 331.042969 242.945312"/><path fill="#F2ECEB" d="M 370.910156 242.945312 L 334.472656 242.945312 L 334.472656 239.476562 L 370.910156 239.476562 L 370.910156 242.945312"/><path fill="#D1C2BA" d="M 322.296875 242.945312 L 302.136719 242.945312 L 302.136719 239.476562 L 322.296875 239.476562 L 322.296875 242.945312"/><path fill="#F2ECEB" d="M 295.734375 242.945312 L 269.753906 242.945312 L 269.753906 239.476562 L 295.734375 239.476562 L 295.734375 242.945312"/><path fill="#D1C2BA" d="M 175.777344 251.871094 L 172.3125 251.871094 L 172.3125 248.402344 L 175.777344 248.402344 L 175.777344 251.871094"/><path fill="#F25E4C" d="M 199.140625 251.871094 L 178.972656 251.871094 L 178.972656 248.402344 L 199.140625 248.402344 L 199.140625 251.871094"/><path fill="#F25E4C" d="M 265.175781 251.871094 L 220.972656 251.871094 L 220.972656 248.402344 L 265.175781 248.402344 L 265.175781 251.871094"/><path fill="#F25E4C" d="M 216.777344 251.871094 L 204.171875 251.871094 L 204.171875 248.402344 L 216.777344 248.402344 L 216.777344 251.871094"/><path fill="#F2ECEB" d="M 347.074219 251.871094 L 269.753906 251.871094 L 269.753906 248.402344 L 347.074219 248.402344 L 347.074219 251.871094"/><path fill="#D1C2BA" d="M 175.777344 260.886719 L 172.3125 260.886719 L 172.3125 257.417969 L 175.777344 257.417969 L 175.777344 260.886719"/><path fill="#F2ECEB" d="M 189.058594 260.886719 L 178.972656 260.886719 L 178.972656 257.417969 L 189.058594 257.417969 L 189.058594 260.886719"/><path fill="#F2ECEB" d="M 256.992188 260.886719 L 231.054688 260.886719 L 231.054688 257.417969 L 256.992188 257.417969 L 256.992188 260.886719"/><path fill="#F2ECEB" d="M 227.695312 260.886719 L 220.972656 260.886719 L 220.972656 257.417969 L 227.695312 257.417969 L 227.695312 260.886719"/><path fill="#F2ECEB" d="M 216.777344 260.886719 L 192.628906 260.886719 L 192.628906 257.417969 L 216.777344 257.417969 L 216.777344 260.886719"/><path fill="#6997EA" d="M 315.574219 260.886719 L 289.222656 260.886719 L 289.222656 257.417969 L 315.574219 257.417969 L 315.574219 260.886719"/><path fill="#6997EA" d="M 270.953125 260.886719 L 260.140625 260.886719 L 260.140625 257.417969 L 270.953125 257.417969 L 270.953125 260.886719"/><path fill="#6997EA" d="M 285.613281 260.886719 L 274.796875 260.886719 L 274.796875 257.417969 L 285.613281 257.417969 L 285.613281 260.886719"/><path fill="#D1C2BA" d="M 175.777344 269.8125 L 172.3125 269.8125 L 172.3125 266.34375 L 175.777344 266.34375 L 175.777344 269.8125"/><path fill="#F2ECEB" d="M 193.960938 269.8125 L 178.972656 269.8125 L 178.972656 266.34375 L 193.960938 266.34375 L 193.960938 269.8125"/><path fill="#F2ECEB" d="M 233.671875 269.8125 L 213.503906 269.8125 L 213.503906 266.34375 L 233.671875 266.34375 L 233.671875 269.8125"/><path fill="#F2ECEB" d="M 210.699219 269.8125 L 196.925781 269.8125 L 196.925781 266.34375 L 210.699219 266.34375 L 210.699219 269.8125"/><path fill="#D1C2BA" d="M 175.777344 279.722656 L 172.3125 279.722656 L 172.3125 276.253906 L 175.777344 276.253906 L 175.777344 279.722656"/><path fill="#F2ECEB" d="M 199.140625 279.722656 L 178.972656 279.722656 L 178.972656 276.253906 L 199.140625 276.253906 L 199.140625 279.722656"/><path fill="#6997EA" d="M 265.175781 279.722656 L 245.011719 279.722656 L 245.011719 276.253906 L 265.175781 276.253906 L 265.175781 279.722656"/><path fill="#6997EA" d="M 241.136719 279.722656 L 220.972656 279.722656 L 220.972656 276.253906 L 241.136719 276.253906 L 241.136719 279.722656"/><path fill="#6997EA" d="M 216.777344 279.722656 L 204.171875 279.722656 L 204.171875 276.253906 L 216.777344 276.253906 L 216.777344 279.722656"/><path fill="#F2ECEB" d="M 387.929688 279.722656 L 375.328125 279.722656 L 375.328125 276.253906 L 387.929688 276.253906 L 387.929688 279.722656"/><path fill="#F2ECEB" d="M 370.90625 279.722656 L 337.472656 279.722656 L 337.472656 276.253906 L 370.90625 276.253906 L 370.90625 279.722656"/><path fill="#F2ECEB" d="M 331.042969 279.722656 L 297.609375 279.722656 L 297.609375 276.253906 L 331.042969 276.253906 L 331.042969 279.722656"/><path fill="#F2ECEB" d="M 290.65625 279.722656 L 269.753906 279.722656 L 269.753906 276.253906 L 290.65625 276.253906 L 290.65625 279.722656"/><path fill="#D1C2BA" d="M 175.777344 288.644531 L 172.3125 288.644531 L 172.3125 285.179688 L 175.777344 285.179688 L 175.777344 288.644531"/><path fill="#6997EA" d="M 184.015625 288.644531 L 178.972656 288.644531 L 178.972656 285.179688 L 184.015625 285.179688 L 184.015625 288.644531"/><path fill="#F25E4C" d="M 256.359375 288.644531 L 236.191406 288.644531 L 236.191406 285.179688 L 256.359375 285.179688 L 256.359375 288.644531"/><path fill="#F2ECEB" d="M 232.949219 288.644531 L 204.492188 288.644531 L 204.492188 285.179688 L 232.949219 285.179688 L 232.949219 288.644531"/><path fill="#6997EA" d="M 200.261719 288.644531 L 187.65625 288.644531 L 187.65625 285.179688 L 200.261719 285.179688 L 200.261719 288.644531"/><path fill="#F25E4C" d="M 387.929688 288.644531 L 365.238281 288.644531 L 365.238281 285.179688 L 387.929688 285.179688 L 387.929688 288.644531"/><path fill="#F2ECEB" d="M 361.984375 288.644531 L 350.117188 288.644531 L 350.117188 285.179688 L 361.984375 285.179688 L 361.984375 288.644531"/><path fill="#F25E4C" d="M 346.445312 288.644531 L 288.488281 288.644531 L 288.488281 285.179688 L 346.445312 285.179688 L 346.445312 288.644531"/><path fill="#F25E4C" d="M 284.605469 288.644531 L 260.140625 288.644531 L 260.140625 285.179688 L 284.605469 285.179688 L 284.605469 288.644531"/><path fill="#D1C2BA" d="M 175.777344 297.660156 L 172.3125 297.660156 L 172.3125 294.195312 L 175.777344 294.195312 L 175.777344 297.660156"/><path fill="#F2ECEB" d="M 199.140625 297.660156 L 178.972656 297.660156 L 178.972656 294.195312 L 199.140625 294.195312 L 199.140625 297.660156"/><path fill="#D1C2BA" d="M 259.511719 297.660156 L 242.605469 297.660156 L 242.605469 294.195312 L 259.511719 294.195312 L 259.511719 297.660156"/><path fill="#F2ECEB" d="M 225.703125 297.660156 L 214.605469 297.660156 L 214.605469 294.195312 L 225.703125 294.195312 L 225.703125 297.660156"/><path fill="#D1C2BA" d="M 239.679688 297.660156 L 228.582031 297.660156 L 228.582031 294.195312 L 239.679688 294.195312 L 239.679688 297.660156"/><path fill="#F2ECEB" d="M 210.109375 297.660156 L 204.171875 297.660156 L 204.171875 294.195312 L 210.109375 294.195312 L 210.109375 297.660156"/><path fill="#F2ECEB" d="M 387.929688 297.660156 L 365.765625 297.660156 L 365.765625 294.195312 L 387.929688 294.195312 L 387.929688 297.660156"/><path fill="#F2ECEB" d="M 362.402344 297.660156 L 334.34375 297.660156 L 334.34375 294.195312 L 362.402344 294.195312 L 362.402344 297.660156"/><path fill="#F2ECEB" d="M 317.46875 297.660156 L 308.414062 297.660156 L 308.414062 294.195312 L 317.46875 294.195312 L 317.46875 297.660156"/><path fill="#F2ECEB" d="M 330.589844 297.660156 L 321.539062 297.660156 L 321.539062 294.195312 L 330.589844 294.195312 L 330.589844 297.660156"/><path fill="#D1C2BA" d="M 304.238281 297.660156 L 263.183594 297.660156 L 263.183594 294.195312 L 304.238281 294.195312 L 304.238281 297.660156"/><path fill="#D1C2BA" d="M 175.777344 306.585938 L 172.3125 306.585938 L 172.3125 303.117188 L 175.777344 303.117188 L 175.777344 306.585938"/><path fill="#F2ECEB" d="M 199.140625 306.585938 L 178.972656 306.585938 L 178.972656 303.117188 L 199.140625 303.117188 L 199.140625 306.585938"/><path fill="#F2ECEB" d="M 267.804688 306.585938 L 220.972656 306.585938 L 220.972656 303.117188 L 267.804688 303.117188 L 267.804688 306.585938"/><path fill="#F2ECEB" d="M 216.777344 306.585938 L 204.171875 306.585938 L 204.171875 303.117188 L 216.777344 303.117188 L 216.777344 306.585938"/><path fill="#F2ECEB" d="M 283.558594 306.585938 L 270.957031 306.585938 L 270.957031 303.117188 L 283.558594 303.117188 L 283.558594 306.585938"/><path fill="#D1C2BA" d="M 175.777344 315.894531 L 172.3125 315.894531 L 172.3125 312.429688 L 175.777344 312.429688 L 175.777344 315.894531"/><path fill="#6997EA" d="M 199.140625 315.894531 L 178.972656 315.894531 L 178.972656 312.429688 L 199.140625 312.429688 L 199.140625 315.894531"/><path fill="#F2ECEB" d="M 241.136719 315.894531 L 220.972656 315.894531 L 220.972656 312.429688 L 241.136719 312.429688 L 241.136719 315.894531"/><path fill="#F2ECEB" d="M 216.777344 315.894531 L 204.171875 315.894531 L 204.171875 312.429688 L 216.777344 312.429688 L 216.777344 315.894531"/><path fill="#D1C2BA" d="M 175.777344 324.820312 L 172.3125 324.820312 L 172.3125 321.351562 L 175.777344 321.351562 L 175.777344 324.820312"/><path fill="#F2ECEB" d="M 199.140625 324.820312 L 178.972656 324.820312 L 178.972656 321.351562 L 199.140625 321.351562 L 199.140625 324.820312"/><path fill="#6997EA" d="M 255.09375 324.820312 L 245.011719 324.820312 L 245.011719 321.351562 L 255.09375 321.351562 L 255.09375 324.820312"/><path fill="#F2ECEB" d="M 241.136719 324.820312 L 220.972656 324.820312 L 220.972656 321.351562 L 241.136719 321.351562 L 241.136719 324.820312"/><path fill="#F2ECEB" d="M 216.777344 324.820312 L 204.171875 324.820312 L 204.171875 321.351562 L 216.777344 321.351562 L 216.777344 324.820312"/><path fill="#F2ECEB" d="M 331.921875 324.820312 L 302.398438 324.820312 L 302.398438 321.351562 L 331.921875 321.351562 L 331.921875 324.820312"/><path fill="#6997EA" d="M 298.777344 324.820312 L 274.976562 324.820312 L 274.976562 321.351562 L 298.777344 321.351562 L 298.777344 324.820312"/><path fill="#6997EA" d="M 270.957031 324.820312 L 257.890625 324.820312 L 257.890625 321.351562 L 270.957031 321.351562 L 270.957031 324.820312"/><path fill="#D1C2BA" d="M 175.777344 333.835938 L 172.3125 333.835938 L 172.3125 330.367188 L 175.777344 330.367188 L 175.777344 333.835938"/><path fill="#F2ECEB" d="M 199.140625 333.835938 L 178.972656 333.835938 L 178.972656 330.367188 L 199.140625 330.367188 L 199.140625 333.835938"/><path fill="#F25E4C" d="M 251.917969 333.835938 L 237.800781 333.835938 L 237.800781 330.367188 L 251.917969 330.367188 L 251.917969 333.835938"/><path fill="#F2ECEB" d="M 235.089844 333.835938 L 220.972656 333.835938 L 220.972656 330.367188 L 235.089844 330.367188 L 235.089844 333.835938"/><path fill="#F2ECEB" d="M 216.777344 333.835938 L 204.171875 333.835938 L 204.171875 330.367188 L 216.777344 330.367188 L 216.777344 333.835938"/><path fill="#F2ECEB" d="M 269.753906 333.835938 L 255.121094 333.835938 L 255.121094 330.367188 L 269.753906 330.367188 L 269.753906 333.835938"/><path fill="#D1C2BA" d="M 174.96875 342.761719 L 172.3125 342.761719 L 172.3125 339.292969 L 174.96875 339.292969 L 174.96875 342.761719"/><path fill="#F2ECEB" d="M 192.863281 342.761719 L 177.414062 342.761719 L 177.414062 339.292969 L 192.863281 339.292969 L 192.863281 342.761719"/><path fill="#F2ECEB" d="M 243.445312 342.761719 L 228 342.761719 L 228 339.292969 L 243.445312 339.292969 L 243.445312 342.761719"/><path fill="#F2ECEB" d="M 225.03125 342.761719 L 209.585938 342.761719 L 209.585938 339.292969 L 225.03125 339.292969 L 225.03125 342.761719"/><path fill="#F2ECEB" d="M 206.371094 342.761719 L 196.71875 342.761719 L 196.71875 339.292969 L 206.371094 339.292969 L 206.371094 342.761719"/><path fill="#F2ECEB" d="M 331.921875 342.761719 L 327.816406 342.761719 L 327.816406 339.292969 L 331.921875 339.292969 L 331.921875 342.761719"/><path fill="#F25E4C" d="M 324.433594 342.761719 L 298.820312 342.761719 L 298.820312 339.292969 L 324.433594 339.292969 L 324.433594 342.761719"/><path fill="#F2ECEB" d="M 368.84375 342.761719 L 343.234375 342.761719 L 343.234375 339.292969 L 368.84375 339.292969 L 368.84375 342.761719"/><path fill="#F25E4C" d="M 293.898438 342.761719 L 268.285156 342.761719 L 268.285156 339.292969 L 293.898438 339.292969 L 293.898438 342.761719"/><path fill="#F2ECEB" d="M 262.960938 342.761719 L 246.949219 342.761719 L 246.949219 339.292969 L 262.960938 339.292969 L 262.960938 342.761719"/><path fill="#6150FF" d="M 405.957031 209.414062 L 405.957031 224.582031 L 165.953125 224.582031 L 165.953125 209.414062 L 405.957031 209.414062"/><path fill="#D1C2BA" d="M 175.777344 233.976562 L 172.3125 233.976562 L 172.3125 230.507812 L 175.777344 230.507812 L 175.777344 233.976562"/><path fill="#F2ECEB" d="M 199.140625 233.976562 L 178.972656 233.976562 L 178.972656 230.507812 L 199.140625 230.507812 L 199.140625 233.976562"/><path fill="#F25E4C" d="M 265.175781 233.976562 L 245.011719 233.976562 L 245.011719 230.507812 L 265.175781 230.507812 L 265.175781 233.976562"/><path fill="#F25E4C" d="M 241.136719 233.976562 L 220.972656 233.976562 L 220.972656 230.507812 L 241.136719 230.507812 L 241.136719 233.976562"/><path fill="#F25E4C" d="M 216.777344 233.976562 L 204.171875 233.976562 L 204.171875 230.507812 L 216.777344 230.507812 L 216.777344 233.976562"/><path fill="#F2ECEB" d="M 387.929688 233.976562 L 375.324219 233.976562 L 375.324219 230.507812 L 387.929688 230.507812 L 387.929688 233.976562"/><path fill="#F25E4C" d="M 370.90625 233.976562 L 337.472656 233.976562 L 337.472656 230.507812 L 370.90625 230.507812 L 370.90625 233.976562"/><path fill="#F2ECEB" d="M 331.042969 233.976562 L 297.609375 233.976562 L 297.609375 230.507812 L 331.042969 230.507812 L 331.042969 233.976562"/><path fill="#F2ECEB" d="M 290.65625 233.976562 L 269.753906 233.976562 L 269.753906 230.507812 L 290.65625 230.507812 L 290.65625 233.976562"/><path fill="#FFF" d="M 623.058594 245.941406 L 623.058594 370.925781 L 435.492188 370.925781 L 435.492188 245.941406 L 623.058594 245.941406"/><path fill="#231F20" d="M 442.574219 254.316406 L 439.746094 254.316406 L 439.746094 250.851562 L 442.574219 250.851562 L 442.574219 254.316406"/><path fill="#F2ECEB" d="M 451.53125 254.316406 L 445.183594 254.316406 L 445.183594 250.851562 L 451.53125 250.851562 L 451.53125 254.316406"/><path fill="#231F20" d="M 464.132812 254.316406 L 454.785156 254.316406 L 454.785156 250.851562 L 464.132812 250.851562 L 464.132812 254.316406"/><path fill="#231F20" d="M 515.570312 254.316406 L 505.457031 254.316406 L 505.457031 250.847656 L 515.570312 250.847656 L 515.570312 254.316406"/><path fill="#231F20" d="M 492.597656 254.3125 L 474.253906 254.3125 L 474.253906 250.847656 L 492.597656 250.847656 L 492.597656 254.3125"/><path fill="#231F20" d="M 472.191406 254.316406 L 465.757812 254.316406 L 465.757812 250.851562 L 472.191406 250.851562 L 472.191406 254.316406"/><path fill="#231F20" d="M 502.375 254.316406 L 495.941406 254.316406 L 495.941406 250.847656 L 502.375 250.847656 L 502.375 254.316406"/><path fill="#F2ECEB" d="M 569.359375 254.3125 L 565.042969 254.3125 L 565.042969 250.84375 L 569.359375 250.84375 L 569.359375 254.3125"/><path fill="#F2ECEB" d="M 601.90625 254.316406 L 572.15625 254.316406 L 572.15625 250.847656 L 601.90625 250.847656 L 601.90625 254.316406"/><path fill="#231F20" d="M 562.214844 254.316406 L 545.753906 254.316406 L 545.753906 250.847656 L 562.214844 250.847656 L 562.214844 254.316406"/><path fill="#F2ECEB" d="M 540.519531 254.3125 L 519.308594 254.3125 L 519.308594 250.847656 L 540.519531 250.847656 L 540.519531 254.3125"/><path fill="#231F20" d="M 442.570312 263.242188 L 439.746094 263.242188 L 439.746094 259.773438 L 442.570312 259.773438 L 442.570312 263.242188"/><path fill="#D1C2BA" d="M 461.648438 263.242188 L 445.183594 263.242188 L 445.183594 259.777344 L 461.648438 259.777344 L 461.648438 263.242188"/><path fill="#D1C2BA" d="M 515.570312 263.242188 L 479.476562 263.242188 L 479.476562 259.773438 L 515.570312 259.773438 L 515.570312 263.242188"/><path fill="#D1C2BA" d="M 476.050781 263.242188 L 465.757812 263.242188 L 465.757812 259.773438 L 476.050781 259.773438 L 476.050781 263.242188"/><path fill="#F2ECEB" d="M 582.445312 263.242188 L 519.308594 263.242188 L 519.308594 259.773438 L 582.445312 259.773438 L 582.445312 263.242188"/><path fill="#231F20" d="M 442.574219 272.253906 L 439.746094 272.253906 L 439.746094 268.789062 L 442.574219 268.789062 L 442.574219 272.253906"/><path fill="#F2ECEB" d="M 453.417969 272.257812 L 445.183594 272.257812 L 445.183594 268.789062 L 453.417969 268.789062 L 453.417969 272.257812"/><path fill="#F2ECEB" d="M 508.886719 272.253906 L 487.707031 272.253906 L 487.707031 268.789062 L 508.886719 268.789062 L 508.886719 272.253906"/><path fill="#F2ECEB" d="M 484.96875 272.253906 L 479.476562 272.253906 L 479.476562 268.789062 L 484.96875 268.789062 L 484.96875 272.253906"/><path fill="#F2ECEB" d="M 476.050781 272.257812 L 456.332031 272.257812 L 456.332031 268.789062 L 476.050781 268.789062 L 476.050781 272.257812"/><path fill="#6997EA" d="M 556.726562 272.253906 L 535.207031 272.253906 L 535.207031 268.789062 L 556.726562 268.789062 L 556.726562 272.253906"/><path fill="#6997EA" d="M 520.289062 272.257812 L 511.457031 272.257812 L 511.457031 268.789062 L 520.289062 268.789062 L 520.289062 272.257812"/><path fill="#6997EA" d="M 532.257812 272.257812 L 523.429688 272.257812 L 523.429688 268.789062 L 532.257812 268.789062 L 532.257812 272.257812"/><path fill="#231F20" d="M 442.574219 291.09375 L 439.746094 291.09375 L 439.746094 287.625 L 442.574219 287.625 L 442.574219 291.09375"/><path fill="#F2ECEB" d="M 461.648438 291.09375 L 445.183594 291.09375 L 445.183594 287.625 L 461.648438 287.625 L 461.648438 291.09375"/><path fill="#6997EA" d="M 515.570312 291.09375 L 499.105469 291.09375 L 499.105469 287.625 L 515.570312 287.625 L 515.570312 291.09375"/><path fill="#6997EA" d="M 495.941406 291.089844 L 479.476562 291.089844 L 479.476562 287.625 L 495.941406 287.625 L 495.941406 291.089844"/><path fill="#6997EA" d="M 476.050781 291.09375 L 465.757812 291.09375 L 465.757812 287.625 L 476.050781 287.625 L 476.050781 291.09375"/><path fill="#D1C2BA" d="M 615.804688 291.09375 L 605.511719 291.09375 L 605.511719 287.625 L 615.804688 287.625 L 615.804688 291.09375"/><path fill="#D1C2BA" d="M 601.90625 291.089844 L 574.601562 291.089844 L 574.601562 287.625 L 601.90625 287.625 L 601.90625 291.089844"/><path fill="#D1C2BA" d="M 569.359375 291.089844 L 542.054688 291.089844 L 542.054688 287.625 L 569.359375 287.625 L 569.359375 291.089844"/><path fill="#F2ECEB" d="M 536.375 291.09375 L 519.308594 291.09375 L 519.308594 287.625 L 536.375 287.625 L 536.375 291.09375"/><path fill="#231F20" d="M 457.65625 343.597656 L 454.828125 343.597656 L 454.828125 340.132812 L 457.65625 340.132812 L 457.65625 343.597656"/><path fill="#F2ECEB" d="M 476.734375 343.597656 L 460.269531 343.597656 L 460.269531 340.132812 L 476.734375 340.132812 L 476.734375 343.597656"/><path fill="#6997EA" d="M 530.652344 343.601562 L 514.1875 343.601562 L 514.1875 340.128906 L 530.652344 340.128906 L 530.652344 343.601562"/><path fill="#6997EA" d="M 511.023438 343.597656 L 494.558594 343.597656 L 494.558594 340.128906 L 511.023438 340.128906 L 511.023438 343.597656"/><path fill="#6997EA" d="M 491.136719 343.597656 L 480.84375 343.597656 L 480.84375 340.128906 L 491.136719 340.128906 L 491.136719 343.597656"/><path fill="#F2ECEB" d="M 630.886719 343.597656 L 620.597656 343.597656 L 620.597656 340.128906 L 630.886719 340.128906 L 630.886719 343.597656"/><path fill="#F2ECEB" d="M 616.984375 343.597656 L 589.6875 343.597656 L 589.6875 340.132812 L 616.984375 340.132812 L 616.984375 343.597656"/><path fill="#F2ECEB" d="M 584.4375 343.597656 L 557.136719 343.597656 L 557.136719 340.128906 L 584.4375 340.128906 L 584.4375 343.597656"/><path fill="#F2ECEB" d="M 551.457031 343.597656 L 534.390625 343.597656 L 534.390625 340.128906 L 551.457031 340.128906 L 551.457031 343.597656"/><path fill="#231F20" d="M 442.574219 300.019531 L 439.746094 300.019531 L 439.746094 296.550781 L 442.574219 296.550781 L 442.574219 300.019531"/><path fill="#6997EA" d="M 449.296875 300.019531 L 445.183594 300.019531 L 445.183594 296.550781 L 449.296875 296.550781 L 449.296875 300.019531"/><path fill="#D1C2BA" d="M 508.367188 300.015625 L 491.902344 300.015625 L 491.902344 296.550781 L 508.367188 296.550781 L 508.367188 300.015625"/><path fill="#F2ECEB" d="M 489.257812 300.015625 L 466.019531 300.015625 L 466.019531 296.546875 L 489.257812 296.546875 L 489.257812 300.015625"/><path fill="#6997EA" d="M 462.566406 300.019531 L 452.273438 300.019531 L 452.273438 296.550781 L 462.566406 296.550781 L 462.566406 300.019531"/><path fill="#D1C2BA" d="M 615.804688 300.019531 L 597.273438 300.019531 L 597.273438 296.550781 L 615.804688 296.550781 L 615.804688 300.019531"/><path fill="#F2ECEB" d="M 594.617188 300.015625 L 584.929688 300.015625 L 584.929688 296.546875 L 594.617188 296.546875 L 594.617188 300.015625"/><path fill="#D1C2BA" d="M 581.929688 300.019531 L 534.605469 300.019531 L 534.605469 296.550781 L 581.929688 296.550781 L 581.929688 300.019531"/><path fill="#D1C2BA" d="M 531.433594 300.019531 L 511.457031 300.019531 L 511.457031 296.550781 L 531.433594 296.550781 L 531.433594 300.019531"/><path fill="#231F20" d="M 442.574219 309.03125 L 439.746094 309.03125 L 439.746094 305.566406 L 442.574219 305.566406 L 442.574219 309.03125"/><path fill="#F2ECEB" d="M 461.648438 309.03125 L 445.183594 309.03125 L 445.183594 305.566406 L 461.648438 305.566406 L 461.648438 309.03125"/><path fill="#231F20" d="M 510.945312 309.03125 L 497.144531 309.03125 L 497.144531 305.566406 L 510.945312 305.566406 L 510.945312 309.03125"/><path fill="#F2ECEB" d="M 483.339844 309.03125 L 474.28125 309.03125 L 474.28125 305.5625 L 483.339844 305.5625 L 483.339844 309.03125"/><path fill="#231F20" d="M 494.75 309.03125 L 485.691406 309.03125 L 485.691406 305.566406 L 494.75 305.566406 L 494.75 309.03125"/><path fill="#F2ECEB" d="M 470.605469 309.03125 L 465.757812 309.03125 L 465.757812 305.5625 L 470.605469 305.5625 L 470.605469 309.03125"/><path fill="#231F20" d="M 615.804688 309.03125 L 597.703125 309.03125 L 597.703125 305.566406 L 615.804688 305.566406 L 615.804688 309.03125"/><path fill="#F2ECEB" d="M 594.960938 309.03125 L 572.050781 309.03125 L 572.050781 305.5625 L 594.960938 305.5625 L 594.960938 309.03125"/><path fill="#F2ECEB" d="M 558.269531 309.03125 L 550.878906 309.03125 L 550.878906 305.5625 L 558.269531 305.5625 L 558.269531 309.03125"/><path fill="#F2ECEB" d="M 568.984375 309.035156 L 561.59375 309.035156 L 561.59375 305.566406 L 568.984375 305.566406 L 568.984375 309.035156"/><path fill="#231F20" d="M 547.464844 309.035156 L 513.941406 309.035156 L 513.941406 305.566406 L 547.464844 305.566406 L 547.464844 309.035156"/><path fill="#231F20" d="M 442.574219 317.960938 L 439.746094 317.960938 L 439.746094 314.492188 L 442.574219 314.492188 L 442.574219 317.960938"/><path fill="#F2ECEB" d="M 461.648438 317.957031 L 445.183594 317.957031 L 445.183594 314.492188 L 461.648438 314.492188 L 461.648438 317.957031"/><path fill="#F2ECEB" d="M 517.71875 317.957031 L 479.476562 317.957031 L 479.476562 314.488281 L 517.71875 314.488281 L 517.71875 317.957031"/><path fill="#F2ECEB" d="M 476.050781 317.960938 L 465.757812 317.960938 L 465.757812 314.492188 L 476.050781 314.492188 L 476.050781 317.960938"/><path fill="#F2ECEB" d="M 530.582031 317.960938 L 520.289062 317.960938 L 520.289062 314.492188 L 530.582031 314.492188 L 530.582031 317.960938"/><path fill="#231F20" d="M 457.957031 336.191406 L 455.128906 336.191406 L 455.128906 332.722656 L 457.957031 332.722656 L 457.957031 336.191406"/><path fill="#F2ECEB" d="M 477.03125 336.191406 L 460.566406 336.191406 L 460.566406 332.722656 L 477.03125 332.722656 L 477.03125 336.191406"/><path fill="#6997EA" d="M 522.722656 336.191406 L 514.488281 336.191406 L 514.488281 332.726562 L 522.722656 332.726562 L 522.722656 336.191406"/><path fill="#F2ECEB" d="M 511.324219 336.191406 L 494.859375 336.191406 L 494.859375 332.722656 L 511.324219 332.722656 L 511.324219 336.191406"/><path fill="#F2ECEB" d="M 491.433594 336.191406 L 481.140625 336.191406 L 481.140625 332.722656 L 491.433594 332.722656 L 491.433594 336.191406"/><path fill="#F2ECEB" d="M 585.449219 336.191406 L 561.34375 336.191406 L 561.34375 332.726562 L 585.449219 332.726562 L 585.449219 336.191406"/><path fill="#6997EA" d="M 558.386719 336.191406 L 538.953125 336.191406 L 538.953125 332.726562 L 558.386719 332.726562 L 558.386719 336.191406"/><path fill="#6997EA" d="M 535.671875 336.191406 L 525.003906 336.191406 L 525.003906 332.722656 L 535.671875 332.722656 L 535.671875 336.191406"/><path fill="#F25E4C" d="M 623.058594 229.867188 L 623.058594 245.941406 L 435.492188 245.941406 L 435.492188 229.867188 L 623.058594 229.867188"/><path fill="#231F20" d="M 453.832031 281.675781 L 451 281.675781 L 451 278.207031 L 453.832031 278.207031 L 453.832031 281.675781"/><path fill="#F2ECEB" d="M 468.675781 281.671875 L 456.441406 281.671875 L 456.441406 278.207031 L 468.675781 278.207031 L 468.675781 281.671875"/><path fill="#F2ECEB" d="M 501.101562 281.675781 L 484.636719 281.675781 L 484.636719 278.207031 L 501.101562 278.207031 L 501.101562 281.675781"/><path fill="#F2ECEB" d="M 482.347656 281.675781 L 471.097656 281.675781 L 471.097656 278.207031 L 482.347656 278.207031 L 482.347656 281.675781"/><path fill="#231F20" d="M 442.574219 351.949219 L 439.746094 351.949219 L 439.746094 348.484375 L 442.574219 348.484375 L 442.574219 351.949219"/><path fill="#F2ECEB" d="M 453.417969 351.949219 L 445.183594 351.949219 L 445.183594 348.480469 L 453.417969 348.480469 L 453.417969 351.949219"/><path fill="#F2ECEB" d="M 508.886719 351.949219 L 487.707031 351.949219 L 487.707031 348.480469 L 508.886719 348.480469 L 508.886719 351.949219"/><path fill="#F2ECEB" d="M 484.96875 351.949219 L 479.476562 351.949219 L 479.476562 348.480469 L 484.96875 348.480469 L 484.96875 351.949219"/><path fill="#F2ECEB" d="M 476.050781 351.949219 L 456.332031 351.949219 L 456.332031 348.484375 L 476.050781 348.484375 L 476.050781 351.949219"/><path fill="#6997EA" d="M 556.726562 351.949219 L 535.207031 351.949219 L 535.207031 348.480469 L 556.726562 348.480469 L 556.726562 351.949219"/><path fill="#6997EA" d="M 520.289062 351.949219 L 511.457031 351.949219 L 511.457031 348.480469 L 520.289062 348.480469 L 520.289062 351.949219"/><path fill="#6997EA" d="M 532.257812 351.949219 L 523.429688 351.949219 L 523.429688 348.480469 L 532.257812 348.480469 L 532.257812 351.949219"/><path fill="#231F20" d="M 442.574219 367.609375 L 439.746094 367.609375 L 439.746094 364.140625 L 442.574219 364.140625 L 442.574219 367.609375"/><path fill="#F2ECEB" d="M 461.648438 367.609375 L 445.183594 367.609375 L 445.183594 364.140625 L 461.648438 364.140625 L 461.648438 367.609375"/><path fill="#6997EA" d="M 515.570312 367.605469 L 499.105469 367.605469 L 499.105469 364.140625 L 515.570312 364.140625 L 515.570312 367.605469"/><path fill="#6997EA" d="M 495.941406 367.605469 L 479.476562 367.605469 L 479.476562 364.136719 L 495.941406 364.136719 L 495.941406 367.605469"/><path fill="#6997EA" d="M 476.050781 367.609375 L 465.757812 367.609375 L 465.757812 364.140625 L 476.050781 364.140625 L 476.050781 367.609375"/><path fill="#F2ECEB" d="M 615.804688 367.609375 L 605.511719 367.609375 L 605.511719 364.140625 L 615.804688 364.140625 L 615.804688 367.609375"/><path fill="#F2ECEB" d="M 601.90625 367.605469 L 574.601562 367.605469 L 574.601562 364.140625 L 601.90625 364.140625 L 601.90625 367.605469"/><path fill="#F2ECEB" d="M 569.359375 367.605469 L 542.054688 367.605469 L 542.054688 364.140625 L 569.359375 364.140625 L 569.359375 367.605469"/><path fill="#F2ECEB" d="M 536.375 367.609375 L 519.308594 367.609375 L 519.308594 364.140625 L 536.375 364.140625 L 536.375 367.609375"/><path fill="#231F20" d="M 442.574219 359.980469 L 439.746094 359.980469 L 439.746094 356.511719 L 442.574219 356.511719 L 442.574219 359.980469"/><path fill="#F2ECEB" d="M 457.417969 359.980469 L 445.183594 359.980469 L 445.183594 356.511719 L 457.417969 356.511719 L 457.417969 359.980469"/><path fill="#F2ECEB" d="M 489.84375 359.976562 L 473.378906 359.976562 L 473.378906 356.511719 L 489.84375 356.511719 L 489.84375 359.976562"/><path fill="#F2ECEB" d="M 471.089844 359.976562 L 459.84375 359.976562 L 459.84375 356.511719 L 471.089844 356.511719 L 471.089844 359.976562"/><path fill="#231F20" d="M 442.574219 326.144531 L 439.746094 326.144531 L 439.746094 322.675781 L 442.574219 322.675781 L 442.574219 326.144531"/><path fill="#6997EA" d="M 461.648438 326.144531 L 445.183594 326.144531 L 445.183594 322.679688 L 461.648438 322.679688 L 461.648438 326.144531"/><path fill="#F2ECEB" d="M 495.941406 326.144531 L 479.476562 326.144531 L 479.476562 322.675781 L 495.941406 322.675781 L 495.941406 326.144531"/><path fill="#F2ECEB" d="M 476.050781 326.144531 L 465.757812 326.144531 L 465.757812 322.675781 L 476.050781 322.675781 L 476.050781 326.144531"/><path stroke-linecap="round" transform="matrix(.0229 0 0 -.02291 81.13 634.29)" fill="none" stroke-linejoin="round" d="M 16299.957807 10652.996378 C 15869.012528 10308.291278 15430.731283 9955.744222 15126.715255 9494.944081 C 14823.040434 9034.314417 14670.008797 8439.348641 14862.279315 7921.950037 C 14968.565502 7635.71865 15169.878024 7395.686612 15314.208866 7126.673433 C 15458.539708 6857.3193 15542.647397 6521.479019 15400.363801 6251.102022 C 15218.329512 5905.374058 14772.5417 5825.761159 14408.643726 5682.901182 C 13706.779561 5407.239388 13168.01266 4731.808326 13093.458785 3981.53773 C 13019.246118 3231.096657 13434.154638 2445.53726 14113.328493 2117.538935" stroke="#231F20" stroke-width="29.037" stroke-miterlimit="10"/><path stroke-linecap="round" transform="matrix(.02285 0 0 -.02287 81.13 634.29)" fill="none" stroke-linejoin="round" d="M 16300.075531 10163.151508 C 15619.821394 9659.146186 15175.605188 8849.253528 15116.12568 8004.690222 C 15086.215008 7579.078137 15148.08737 7142.535405 15036.648752 6730.757421 C 14966.059567 6470.129796 14829.325067 6232.559006 14683.360988 6005.406489 C 14358.78747 5500.205627 13976.443624 5019.25714 13785.869915 4449.667934 C 13595.125288 3880.249519 13643.324199 3177.613838 14089.933259 2776.083336" stroke="#231F20" stroke-width="29.09" stroke-miterlimit="10"/><path stroke-linecap="round" transform="matrix(.02216 0 0 -.02218 81.13 634.29)" fill="none" stroke-linejoin="round" d="M 12021.952392 11006.323004 C 12467.205047 10650.173713 12920.037221 10285.745977 13233.970309 9809.823433 C 13548.079664 9333.90089 13705.839414 8719.182282 13507.361785 8184.782209 C 13397.546898 7888.871819 13189.550804 7641.046868 13040.428181 7362.926329 C 12891.305557 7084.80579 12804.405494 6737.639493 12951.412903 6458.462131 C 13139.490727 6101.079881 13600.254956 6018.999975 13976.058068 5871.397054 C 14701.224111 5586.583304 15257.878064 4888.727968 15334.730858 4113.548429 C 15411.583653 3338.192753 14982.72391 2526.552826 14281.177762 2187.841112" stroke="#231F20" stroke-width="30" stroke-miterlimit="10"/><path stroke-linecap="round" transform="matrix(.02216 0 0 -.02218 81.13 634.29)" fill="none" stroke-linejoin="round" d="M 12052.270466 10481.258199 C 12753.816614 9961.477508 13211.936824 9126.235206 13273.278045 8255.237064 C 13304.301192 7816.303319 13240.315952 7366.096797 13355.242608 6941.430161 C 13427.864973 6672.64489 13569.055542 6427.638132 13719.41204 6193.37574 C 14054.321005 5672.36209 14448.455977 5176.359913 14645.170926 4588.942561 C 14841.885876 4001.701347 14792.178335 3276.897029 14331.414107 2862.974758" stroke="#231F20" stroke-width="30" stroke-miterlimit="10"/><path fill="#D1C2BA" d="M 399.035156 630.472656 L 262.78125 630.472656 L 262.78125 519.714844 L 399.035156 519.714844 L 399.035156 630.472656"/><path fill="#D1C2BA" d="M 538.257812 630.472656 L 402.003906 630.472656 L 402.003906 519.714844 L 538.257812 519.714844 L 538.257812 630.472656"/><path fill="#F4AB98" d="M 226.875 585.675781 L 219.898438 605.539062 L 245.898438 608.527344 L 251.050781 585.675781 L 226.875 585.675781"/><path fill="#F2ECEB" d="M 218.25 604.039062 C 220.300781 594.507812 224.175781 592.417969 231.675781 605.152344 C 239.894531 598.542969 248.835938 585.433594 251.976562 603.714844 L 271.347656 610.082031 C 283.6875 609.882812 289.183594 613.460938 288.066406 625.3125 L 209.101562 625.382812 C 209.035156 620.152344 218.25 604.039062 218.25 604.039062"/><g clip-path="url(#b)"><path fill="#231F20" d="M 209.101562 625.382812 C 207.699219 629.683594 212.085938 633.613281 216.191406 631.71875 C 217.261719 631.222656 218.441406 630.59375 219.738281 629.820312 C 222.363281 635.117188 226.25 635.894531 232.027344 629.886719 C 234.109375 634.433594 237.425781 636.128906 244.007812 630.296875 C 245.636719 633.589844 247.785156 636.0625 255.3125 630.085938 C 256.578125 635.046875 260.964844 634.910156 268.09375 630.296875 C 270.160156 634.605469 273.203125 636.421875 279.261719 630.582031 C 280.476562 633.816406 282.265625 634.945312 284.640625 633.925781 C 287.136719 632.859375 288.589844 630.230469 288.300781 627.53125 L 288.066406 625.3125 L 209.101562 625.382812"/></g><path fill="#F4AB98" d="M 307.242188 587.699219 L 311.1875 605.46875 L 336.90625 604.429688 L 330.660156 586.273438 L 307.242188 587.699219"/><path fill="#F2ECEB" d="M 304.664062 604.039062 C 306.714844 594.507812 308.960938 592.484375 316.460938 605.21875 C 329.304688 599.449219 338.328125 585.433594 341.46875 603.714844 L 360.84375 610.082031 C 373.179688 609.882812 378.675781 613.460938 377.558594 625.3125 L 298.59375 625.382812 C 298.53125 620.152344 304.664062 604.039062 304.664062 604.039062"/><g clip-path="url(#c)"><path fill="#231F20" d="M 298.59375 625.382812 C 297.191406 629.683594 301.578125 633.613281 305.683594 631.71875 C 306.753906 631.222656 307.933594 630.59375 309.230469 629.820312 C 311.859375 635.117188 315.742188 635.894531 321.519531 629.886719 C 323.601562 634.433594 326.917969 636.128906 333.5 630.296875 C 335.128906 633.589844 337.277344 636.0625 344.804688 630.085938 C 346.070312 635.046875 350.457031 634.910156 357.585938 630.296875 C 359.652344 634.605469 362.695312 636.421875 368.753906 630.582031 C 369.96875 633.816406 371.757812 634.945312 374.136719 633.925781 C 376.628906 632.859375 378.082031 630.230469 377.796875 627.53125 L 377.558594 625.3125 L 298.59375 625.382812"/></g><path fill="#EAD8CA" d="M 268.730469 497.84375 C 281.601562 529.019531 291.15625 583.757812 305.683594 587.566406 L 307.101562 594.304688 L 335.566406 594.304688 L 332.496094 585.777344 C 343.886719 579.257812 320.746094 518.664062 309.644531 485.34375 L 268.730469 497.84375"/><path fill="#FFBFA9" d="M 228.421875 427.980469 L 205.402344 380.207031 L 210.160156 352.402344 L 211.636719 345.09375 C 221.566406 345.011719 228.148438 361.394531 231.164062 372.164062 L 252.125 415.597656 L 228.421875 427.980469"/><path fill="#FFF" d="M 215.132812 400.398438 L 205.402344 380.207031 L 210.160156 352.402344 L 211.636719 345.09375 C 221.566406 345.011719 229.625 359.917969 232.636719 370.691406 L 238.8125 381.332031 L 215.132812 400.398438"/><path fill="#FFBFA9" d="M 280.339844 411.414062 C 286.398438 411.675781 291.378906 411.71875 297.433594 411.984375 C 300.417969 412.113281 303.433594 412.25 306.304688 413.0625 C 310.3125 414.199219 313.367188 417.488281 316.089844 420.476562 C 319.53125 424.25 323.253906 427.738281 326.425781 431.785156 C 326.796875 432.265625 327.179688 432.765625 327.339844 433.351562 C 327.507812 433.9375 327.414062 434.640625 326.953125 435.039062 C 326.28125 435.628906 325.214844 435.316406 324.476562 434.808594 C 320.703125 432.222656 317.140625 429.03125 313.742188 425.941406 C 315.660156 427.953125 317.574219 429.960938 319.484375 431.96875 C 320.8125 433.363281 322.230469 435.019531 322.03125 436.929688 C 322.015625 437.070312 321.988281 437.222656 321.890625 437.328125 C 321.808594 437.417969 321.691406 437.460938 321.574219 437.492188 C 319.929688 437.933594 318.359375 436.679688 317.113281 435.519531 C 314.375 432.964844 311.632812 430.410156 308.894531 427.855469 C 310.53125 429.378906 317.125 436.152344 314.800781 438.589844 C 313.578125 439.867188 311.273438 437.761719 310.492188 436.894531 C 307.527344 433.605469 304.683594 430.199219 301.980469 426.695312 C 304.078125 429.417969 306.269531 433.398438 306.921875 436.777344 C 307.035156 437.363281 307.082031 438.050781 306.660156 438.46875 C 305.988281 439.140625 304.859375 438.542969 304.15625 437.90625 C 303.488281 437.300781 296.140625 428.210938 296.339844 428.109375 C 293.125 429.800781 289.558594 430.824219 285.957031 431.289062 C 282.328125 431.753906 278.367188 431.996094 275.289062 430.019531 L 280.339844 411.414062"/><path fill="#FFBFA9" d="M 227.296875 402.382812 L 280.339844 411.414062 L 275.289062 430.019531 L 228.421875 429.300781 L 227.296875 402.382812"/><path stroke-linecap="round" transform="matrix(.02216 0 0 -.02218 81.13 634.29)" fill="none" stroke-linejoin="round" d="M 861.904341 12638.409714 L 1028.301216 11947.952137" stroke="#231F20" stroke-width="30" stroke-miterlimit="10"/><path stroke-linecap="round" transform="matrix(.02216 0 0 -.02218 81.13 634.29)" fill="none" stroke-linejoin="round" d="M 1310.682354 12674.341689 L 1477.079229 11983.884113" stroke="#231F20" stroke-width="30" stroke-miterlimit="10"/><path stroke-linecap="round" transform="matrix(.02216 0 0 -.02218 81.13 634.29)" fill="none" stroke-linejoin="round" d="M 3223.188811 4373.70298 L 6318.276451 4373.70298 C 6565.932817 4373.70298 6789.087948 4500.697856 6883.920066 4695.681666 L 7005.721168 4945.620263 L 2513.181806 4945.620263 L 2672.527966 4666.971313 C 2775.11587 4487.48757 2988.752536 4373.70298 3223.188811 4373.70298 Z M 3223.188811 4373.70298" stroke="#231F20" stroke-width="30" stroke-miterlimit="10"/><path fill="#231F20" d="M 113.625 354.40625 L 97.628906 354.40625 C 94.984375 354.40625 92.675781 352.597656 92.015625 350.003906 L 88.605469 336.570312 C 87.664062 332.863281 90.429688 329.257812 94.214844 329.257812 L 110.210938 329.257812 C 112.855469 329.257812 115.164062 331.066406 115.820312 333.65625 L 119.234375 347.089844 C 120.175781 350.796875 117.40625 354.40625 113.625 354.40625"/><path stroke-linecap="round" transform="matrix(.02216 0 0 -.02218 81.13 634.29)" fill="none" stroke-linejoin="round" d="M 4535.326882 4373.70298 L 4535.326882 903.272973" stroke="#231F20" stroke-width="30" stroke-miterlimit="10"/><path stroke-linecap="round" transform="matrix(.02216 0 0 -.02218 81.13 634.29)" fill="none" stroke-linejoin="round" d="M 2840.158716 903.272973 L 6308.052914 903.272973" stroke="#231F20" stroke-width="30" stroke-miterlimit="10"/><path stroke-linecap="round" transform="matrix(.02216 0 0 -.02218 81.13 634.29)" fill="none" stroke-linejoin="round" d="M 3293.167158 477.549514 C 3293.167158 242.582573 3104.560531 52.002191 2871.886934 52.002191 C 2639.213337 52.002191 2450.782977 242.582573 2450.782977 477.549514 C 2450.782977 712.692591 2639.213337 903.272973 2871.886934 903.272973 C 3104.560531 903.272973 3293.167158 712.692591 3293.167158 477.549514 Z M 3293.167158 477.549514" stroke="#231F20" stroke-width="30" stroke-miterlimit="10"/><path stroke-linecap="round" transform="matrix(.02216 0 0 -.02218 81.13 634.29)" fill="none" stroke-linejoin="round" d="M 6729.333138 477.549514 C 6729.333138 242.582573 6540.726511 52.002191 6308.052914 52.002191 C 6075.379317 52.002191 5886.77269 242.582573 5886.77269 477.549514 C 5886.77269 712.692591 6075.379317 903.272973 6308.052914 903.272973 C 6540.726511 903.272973 6729.333138 712.692591 6729.333138 477.549514 Z M 6729.333138 477.549514" stroke="#231F20" stroke-width="30" stroke-miterlimit="10"/><path stroke-linecap="round" transform="matrix(.02216 0 0 -.02218 81.13 634.29)" fill="none" stroke-linejoin="round" d="M 4956.607107 477.549514 C 4956.607107 242.582573 4768.000479 52.002191 4535.326882 52.002191 C 4302.653286 52.002191 4114.222926 242.582573 4114.222926 477.549514 C 4114.222926 712.692591 4302.653286 903.272973 4535.326882 903.272973 C 4768.000479 903.272973 4956.607107 712.692591 4956.607107 477.549514 Z M 4956.607107 477.549514" stroke="#231F20" stroke-width="30" stroke-miterlimit="10"/><path fill="#EAD8CA" d="M 298.875 496.066406 L 245.894531 499.191406 L 183.117188 502.894531 C 163.792969 502.894531 149.292969 482.800781 153.0625 461.246094 L 192.230469 450.839844 L 214.410156 452.113281 L 257.390625 454.570312 L 284.085938 456.4375 C 296.335938 458.078125 309.644531 472.648438 309.644531 485.34375 L 298.875 496.066406"/><path fill="#EAD8CA" d="M 299.523438 489.933594 C 299.523438 491.96875 297.589844 497.8125 296.476562 500.03125 L 244.148438 505.980469 L 172.136719 510.226562 C 152.808594 510.226562 138.308594 490.132812 142.078125 468.578125 L 147.378906 434.945312 L 208.253906 433.21875 L 214.410156 452.113281 L 215.929688 456.761719 L 255.6875 461.175781 L 279.074219 463.773438 C 291.324219 465.410156 299.523438 477.238281 299.523438 489.933594"/><path fill="#FFBFA9" d="M 296.476562 499.441406 L 251.050781 590.125 L 224.582031 590.125 L 254.140625 495.039062 L 296.476562 499.441406"/><path fill="#EAD8CA" d="M 296.476562 499.441406 C 282.1875 529.992188 269.863281 578.761719 255.175781 581.898438 L 251.050781 590.125 L 224.582031 590.125 L 227.296875 581.398438 C 216.214844 574.363281 241.519531 527.816406 254.140625 495.039062 L 296.476562 499.441406"/><path stroke-linecap="round" transform="matrix(.02216 0 0 -.02218 81.13 634.29)" fill="none" stroke-linejoin="round" d="M 7876.837013 7805.911228 L 8932.152788 7696.88234 C 9484.928848 7628.188857 9854.915121 7131.305994 9854.915121 6598.138881 C 9854.915121 6512.71237 9845.396655 6426.229035 9825.654653 6340.626387 C 9803.268633 6243.398687 9044.611693 4402.58947 9044.611693 4402.58947" stroke="#231F20" stroke-width="30" stroke-miterlimit="10"/><path fill="#FB6C2E" d="M 198.484375 324.757812 C 196.726562 319.503906 197.964844 312.832031 197.722656 307.6875 C 197.46875 302.183594 195.839844 295.980469 191.78125 292.089844 C 190.828125 291.179688 189.621094 290.316406 188.3125 290.472656 C 186.648438 290.667969 185.628906 292.347656 184.894531 293.855469 C 181.988281 299.847656 179.597656 306.089844 177.753906 312.492188 C 176.699219 316.15625 177.171875 319.207031 176.851562 322.78125 C 176.535156 326.296875 175.675781 326.738281 172.898438 329.546875 C 170.183594 332.289062 168.519531 336.238281 168.757812 340.09375 C 168.910156 342.574219 210.09375 341.328125 210.128906 340.09375 C 210.238281 335.695312 208.410156 335.742188 205.226562 332.714844 C 203.6875 331.253906 201.851562 330.101562 200.5 328.464844 C 199.582031 327.359375 198.9375 326.105469 198.484375 324.757812"/><path fill="#FFF" d="M 212.40625 407.816406 L 215.277344 449.730469 L 141.480469 450.839844 C 141.480469 450.839844 141.546875 385.457031 140.453125 374.179688 C 140.167969 371.230469 139.964844 368.488281 139.878906 365.972656 C 139.664062 359.625 141.46875 348.039062 149.277344 346.8125 C 153.847656 346.09375 158.882812 346.546875 163.519531 346.417969 L 167.1875 346.316406 L 198.9375 345.445312 L 199.207031 345.4375 L 211.636719 345.09375 L 213.695312 365.519531 C 222.398438 390.632812 223.765625 400.644531 212.40625 407.816406"/><path fill="#FFBFA9" d="M 200.792969 329.898438 C 198.96875 330.941406 196.84375 331.324219 194.75 331.472656 C 189.953125 331.03125 184.617188 328.742188 179.0625 325.691406 C 173.1875 322.460938 168.777344 317.046875 166.984375 310.582031 C 163.148438 296.769531 173.210938 286.585938 186.710938 287.703125 C 193.902344 288.296875 200.628906 291.019531 203.214844 297.347656 C 203.449219 297.914062 204.042969 300.0625 204.148438 300.527344 C 204.722656 303.085938 205.070312 305.699219 205.234375 308.324219 C 205.628906 314.484375 207.246094 326.203125 200.792969 329.898438"/><path fill="#FFBFA9" d="M 196.890625 329.878906 L 196.84375 330.386719 L 196.332031 335.796875 L 195.117188 348.667969 L 168.65625 348.632812 C 172.039062 342.335938 174.054688 332.722656 174.988281 320.515625 L 196.890625 329.878906"/><path stroke-linecap="round" transform="matrix(.02216 0 0 -.02218 81.13 634.29)" fill="none" stroke-linejoin="round" d="M 5248.330442 14879.754779 L 5268.072444 14632.282102 C 5385.995653 14638.623039 5447.160606 14612.378606 5295.570233 14462.838177" stroke="#231F20" stroke-width="30" stroke-miterlimit="10"/><path fill="#231F20" d="M 191.660156 306.628906 C 191.589844 307.355469 191.144531 307.910156 190.671875 307.859375 C 190.199219 307.8125 189.878906 307.183594 189.949219 306.457031 C 190.023438 305.730469 190.464844 305.179688 190.9375 305.226562 C 191.410156 305.273438 191.734375 305.902344 191.660156 306.628906"/><path fill="#231F20" d="M 202.941406 305.355469 C 202.867188 306.082031 202.425781 306.632812 201.953125 306.582031 C 201.480469 306.535156 201.15625 305.90625 201.230469 305.179688 C 201.304688 304.453125 201.746094 303.902344 202.21875 303.949219 C 202.691406 303.996094 203.015625 304.625 202.941406 305.355469"/><path fill="#231F20" d="M 192.976562 301.160156 C 193.535156 300.652344 193.960938 299.773438 193.292969 299.164062 C 192.921875 298.824219 192.386719 298.730469 191.886719 298.746094 C 189.496094 298.8125 187.058594 300.835938 185.597656 302.589844 C 185.3125 302.933594 185.042969 303.425781 185.292969 303.800781 C 185.46875 304.070312 185.839844 304.132812 186.160156 304.101562 C 187.320312 303.988281 188.417969 303.445312 189.484375 303.003906 C 190.632812 302.53125 192.042969 302.003906 192.976562 301.160156"/><path fill="#231F20" d="M 204.148438 300.527344 C 203.960938 300.601562 203.785156 300.675781 203.609375 300.746094 C 202.539062 301.191406 201.441406 301.734375 200.285156 301.84375 C 199.964844 301.875 199.59375 301.8125 199.414062 301.542969 C 199.167969 301.171875 199.433594 300.679688 199.722656 300.335938 C 200.605469 299.273438 201.84375 298.113281 203.214844 297.347656 C 204.726562 297.152344 205.699219 299.066406 204.148438 300.527344"/><path fill="#FFBFA9" d="M 185.65625 407.160156 L 254.277344 410.449219 L 249.222656 429.054688 L 186.785156 434.074219 L 185.65625 407.160156"/><path fill="#EF8986" d="M 196.761719 331.242188 L 196.332031 335.796875 C 191.96875 334.515625 187.003906 330.972656 181.722656 326.25 C 187.570312 328.652344 192.761719 331.179688 196.761719 331.242188"/><path stroke-linecap="round" transform="matrix(.02216 0 0 -.02218 81.13 634.29)" fill="none" stroke-linejoin="round" d="M 4856.663221 14765.617915 C 4866.886758 14838.186415 4914.655352 14867.953591 4973.000019 14885.743442" stroke="#231F20" stroke-width="22.986" stroke-miterlimit="10"/><path stroke-linecap="round" transform="matrix(.02216 0 0 -.02218 81.13 634.29)" fill="none" stroke-linejoin="round" d="M 5377.887331 14832.550027 C 5388.110868 14904.94239 5435.879462 14934.709566 5494.224129 14952.675554" stroke="#231F20" stroke-width="22.986" stroke-miterlimit="10"/><path fill="#EF8986" d="M 191.566406 315.679688 C 194.824219 320.609375 197.746094 321.636719 200.230469 317.558594 C 200.121094 314.191406 195.835938 314.941406 191.566406 315.679688"/><path fill="#FFF" d="M 191.566406 315.679688 C 194.734375 317.457031 197.546875 318.75 200.230469 317.558594 L 191.566406 315.679688"/><path fill="#FB6C2E" d="M 177.429688 324.492188 C 175.488281 320.257812 175.269531 314.792969 179.464844 312.042969 C 179.925781 311.742188 180.480469 311.617188 180.964844 311.363281 C 182.800781 310.390625 183.25 307.460938 183.0625 305.578125 C 182.976562 304.691406 182.710938 303.832031 182.601562 302.949219 C 182.394531 301.34375 182.710938 299.675781 183.484375 298.25 C 183.5625 298.097656 183.660156 297.945312 183.8125 297.867188 C 183.960938 297.796875 184.140625 297.8125 184.308594 297.84375 C 185.40625 298.050781 186.378906 298.761719 187.492188 298.859375 C 189.441406 299.027344 191.023438 297.328125 192.898438 296.769531 C 195.925781 295.863281 199.347656 298.011719 202.257812 296.78125 C 204.261719 295.933594 205.707031 292.941406 204.421875 290.988281 C 202.886719 288.65625 199.710938 289.460938 197.519531 288.359375 C 195.921875 287.554688 194.976562 285.8125 193.40625 284.953125 C 192.484375 284.449219 191.597656 284.4375 190.582031 284.472656 C 189.648438 284.507812 188.933594 284.328125 187.984375 284.140625 C 186.015625 283.75 183.992188 283.632812 182 283.902344 C 178.648438 284.359375 175.414062 286.109375 173.316406 288.765625 C 172.578125 289.699219 167.511719 290.984375 166.105469 291.941406 C 164.234375 293.210938 162.429688 294.78125 161.222656 296.65625 C 157.632812 302.230469 157.328125 311.0625 158.425781 317.359375 C 158.863281 319.863281 159.5625 322.511719 158.628906 324.875 C 157.78125 327.015625 155.78125 328.433594 154.257812 330.160156 C 151.707031 333.058594 150.277344 337.097656 150.738281 340.933594 C 150.816406 341.605469 187.320312 340.589844 190.707031 340.933594 C 191.351562 338.640625 190.589844 336.5 188.742188 335.007812 C 187.582031 334.070312 186.210938 333.4375 184.933594 332.660156 C 181.835938 330.773438 178.949219 327.804688 177.429688 324.492188"/><path stroke-linecap="round" transform="matrix(.02216 0 0 -.02218 81.13 634.29)" fill="none" stroke-linejoin="round" d="M 7042.737422 7947.349349 L 4393.783778 8105.872772" stroke="#231F20" stroke-width="30" stroke-miterlimit="10"/><path fill="#FFBFA9" d="M 142.363281 357.070312 C 139.515625 365.515625 140.28125 374.761719 144.347656 382.691406 L 168.140625 417.597656 C 174.960938 427.503906 179.726562 434.074219 186.785156 434.074219 C 195.929688 433.765625 202.824219 426.523438 207.152344 418.539062 L 188.285156 395.929688 L 163.113281 354.414062 C 161.402344 351.152344 158.425781 348.703125 154.863281 347.777344 C 149.246094 346.3125 145.015625 349.207031 142.363281 357.070312"/><path fill="#FFF" d="M 182.878906 385.398438 L 156.472656 406.195312 L 142.757812 386.070312 C 138.167969 377.121094 137.300781 366.683594 140.515625 357.152344 C 143.507812 348.277344 148.289062 345.015625 154.625 346.664062 C 158.648438 347.710938 162.007812 350.472656 163.941406 354.15625 L 182.878906 385.398438"/><path stroke-linecap="round" transform="matrix(.02216 0 0 -.02218 81.13 634.29)" fill="none" stroke-linejoin="round" d="M 3399.809223 10285.041429 L 2780.93271 11192.499957" stroke="#231F20" stroke-width="30" stroke-miterlimit="10"/><path stroke-linecap="round" transform="matrix(.02216 0 0 -.02218 81.13 634.29)" fill="none" stroke-linejoin="round" d="M 3736.833403 12631.540365 L 4591.380067 11222.795545" stroke="#231F20" stroke-width="30" stroke-miterlimit="10"/><path fill="#FFBFA9" d="M 254.277344 410.449219 C 260.332031 410.710938 265.316406 410.753906 271.371094 411.015625 C 274.351562 411.144531 277.367188 411.28125 280.238281 412.09375 C 284.246094 413.230469 287.304688 416.523438 290.027344 419.507812 C 293.46875 423.285156 297.1875 426.769531 300.359375 430.820312 C 300.734375 431.296875 301.113281 431.796875 301.277344 432.386719 C 301.441406 432.972656 301.347656 433.671875 300.890625 434.070312 C 300.214844 434.660156 299.148438 434.347656 298.410156 433.84375 C 294.636719 431.257812 291.074219 428.0625 287.679688 424.976562 C 289.59375 426.984375 291.507812 428.996094 293.421875 431.007812 C 294.746094 432.398438 296.167969 434.050781 295.96875 435.960938 C 295.953125 436.105469 295.925781 436.253906 295.828125 436.363281 C 295.742188 436.449219 295.625 436.492188 295.507812 436.523438 C 293.863281 436.964844 292.292969 435.714844 291.046875 434.554688 C 288.308594 431.996094 285.570312 429.441406 282.828125 426.886719 C 284.464844 428.414062 291.0625 435.1875 288.734375 437.621094 C 287.511719 438.902344 285.210938 436.796875 284.429688 435.929688 C 281.460938 432.636719 278.621094 429.234375 275.914062 425.726562 C 278.015625 428.449219 280.207031 432.433594 280.855469 435.8125 C 280.96875 436.394531 281.019531 437.082031 280.597656 437.503906 C 279.925781 438.171875 278.792969 437.578125 278.089844 436.941406 C 277.425781 436.335938 270.074219 427.246094 270.273438 427.140625 C 267.058594 428.835938 263.492188 429.855469 259.890625 430.324219 C 256.261719 430.789062 252.300781 431.03125 249.222656 429.054688 L 254.277344 410.449219"/><path stroke-linecap="round" transform="matrix(.02216 0 0 -.02218 81.13 634.29)" fill="none" stroke-linejoin="round" d="M 9916.608877 9028.12682 C 9937.232219 9046.092808 9941.462648 9077.621356 9934.059397 9104.041926 C 9926.656146 9130.638634 9909.558162 9153.184187 9892.636446 9174.672918 C 9749.506931 9357.327129 9581.699912 9514.441455 9426.407913 9684.766066 C 9303.549204 9819.334839 9165.531456 9967.818445 8984.680615 10019.074352 C 8855.123726 10055.710876 8719.044926 10061.875676 8584.552536 10067.688202 C 8311.337328 10079.48939 8086.419518 10081.426898 7813.20431 10093.228087 L 6239.660978 10168.790918" stroke="#231F20" stroke-width="30" stroke-miterlimit="10"/><path stroke-linecap="round" transform="matrix(.02216 0 0 -.02218 81.13 634.29)" fill="none" stroke-linejoin="round" d="M 8066.501248 9197.042335 C 8122.554433 9204.440094 8178.255081 9214.656048 8233.426927 9228.042471 C 8338.130045 9253.582355 8440.012878 9290.571154 8535.021263 9340.594101 C 8531.848441 9338.83273 8573.44766 9283.701806 8629.324577 9212.71854" stroke="#231F20" stroke-width="30" stroke-miterlimit="10"/><path fill="#F9F9F9" d="M 172.722656 303.316406 L 173.316406 288.765625 C 172.089844 288.207031 170.871094 288.679688 169.65625 290.453125 L 168.734375 303.96875 L 172.722656 303.316406"/><path fill="#F9F9F9" d="M 182.722656 314.785156 C 182.144531 320.511719 177.039062 324.6875 171.316406 324.105469 C 165.59375 323.527344 161.421875 318.417969 162 312.691406 C 162.578125 306.964844 167.683594 302.792969 173.40625 303.371094 C 179.128906 303.949219 183.296875 309.058594 182.722656 314.785156"/><path fill="#D1C2BA" d="M 179.097656 314.417969 C 178.722656 318.144531 175.402344 320.855469 171.679688 320.480469 C 167.960938 320.105469 165.25 316.78125 165.625 313.058594 C 166 309.335938 169.320312 306.621094 173.039062 307 C 176.761719 307.375 179.472656 310.695312 179.097656 314.417969"/><path fill="#FFBFA9" d="M 201.609375 351.269531 C 201.441406 353.4375 199.839844 355.304688 197.90625 356.296875 C 195.972656 357.292969 193.746094 357.542969 191.570312 357.589844 C 187.097656 357.6875 182.167969 357.152344 177.960938 355.597656 C 172.578125 353.613281 167.753906 350.316406 163.519531 346.417969 L 167.1875 346.316406 L 198.9375 345.445312 L 199.207031 345.4375 C 200.582031 347.140625 201.78125 349.117188 201.609375 351.269531"/><path fill="#231F20" d="M 218.71875 461.175781 L 121.511719 461.175781 L 121.511719 445.625 L 213.410156 446.125 C 215.214844 446.125 217.179688 447.542969 217.796875 449.292969 L 220.871094 458.011719 C 221.488281 459.757812 220.523438 461.175781 218.71875 461.175781"/><path fill="#231F20" d="M 116.875 361 C 118.65625 361 120.199219 362.246094 120.589844 364.003906 L 125.375 385.488281 L 153.445312 508.507812 L 153.753906 511.046875 L 129.382812 517.191406 L 101.511719 385.488281 L 97.105469 365.695312 C 96.570312 363.289062 98.378906 361 100.820312 361 L 116.875 361"/><path fill="#231F20" d="M 244.375 517.082031 C 244.375 521.238281 240.839844 524.609375 236.480469 524.609375 L 137.273438 524.609375 C 132.957031 524.609375 129.441406 521.304688 129.382812 517.191406 C 129.320312 512.992188 132.871094 509.558594 137.273438 509.558594 L 236.480469 509.558594 C 240.839844 509.558594 244.375 512.925781 244.375 517.082031"/><path fill="#231F20" d="M 117.101562 361.632812 L 127.0625 402.710938 L 130.097656 397.160156 C 131.039062 395.4375 131.289062 393.425781 130.796875 391.523438 L 124.558594 367.410156 C 123.679688 364.007812 120.609375 361.632812 117.101562 361.632812"/><path stroke-linecap="round" transform="matrix(.02216 0 0 -.02218 81.13 634.29)" fill="none" stroke-linejoin="round" d="M 6289.015983 10777.520863 C 6305.9377 11148.289536 6161.750577 11622.274571 5981.957343 12119.157434" stroke="#231F20" stroke-width="30" stroke-miterlimit="10"/><path stroke-linecap="round" transform="matrix(.02216 0 0 -.02218 81.13 634.29)" fill="none" stroke-linejoin="round" d="M 8789.552076 9404.355745 L 8989.26358 9156.354656" stroke="#231F20" stroke-width="30" stroke-miterlimit="10"/><path stroke-linecap="round" transform="matrix(.02216 0 0 -.02218 81.13 634.29)" fill="none" stroke-linejoin="round" d="M 8989.26358 9471.640131 L 9242.736786 9153.536462" stroke="#231F20" stroke-width="30" stroke-miterlimit="10"/><path stroke-linecap="round" transform="matrix(.02216 0 0 -.02218 81.13 634.29)" fill="none" stroke-linejoin="round" d="M 9242.736786 9511.270987 L 9529.172085 9219.235614" stroke="#231F20" stroke-width="30" stroke-miterlimit="10"/><path fill="#231F20" d="M 352.46875 443.097656 L 357.1875 443.097656 L 346.964844 409.335938 L 342.246094 409.335938 L 352.46875 443.097656"/><path fill="#D1C2BA" d="M 349.71875 410.375 L 340.28125 410.375 L 340.28125 299.835938 L 349.71875 299.835938 L 349.71875 410.375"/><path stroke-linecap="round" transform="matrix(.02216 0 0 -.02218 81.13 634.29)" fill="none" stroke-linejoin="round" d="M 7483.759649 8321.993039 L 6700.072671 96.564887" stroke="#231F20" stroke-width="30" stroke-miterlimit="10"/><path fill="#231F20" d="M 267.652344 438.914062 L 319.878906 438.914062 L 319.878906 443.113281 L 267.652344 443.113281 L 267.652344 438.914062"/><path fill="#231F20" d="M 491.226562 438.914062 L 543.449219 438.914062 L 543.449219 443.113281 L 491.226562 443.113281 L 491.226562 438.914062"/><path fill="#EACDB1" d="M 391.636719 399.328125 C 384.367188 389.925781 377.105469 380.527344 369.835938 371.125 C 368.328125 369.171875 366.773438 367.121094 366.328125 364.695312 C 365.882812 362.269531 366.941406 359.375 369.277344 358.59375 C 371.648438 357.796875 374.15625 359.417969 375.796875 361.300781 C 377.441406 363.183594 378.757812 365.46875 380.929688 366.707031 C 372.859375 354.539062 366.988281 340.914062 363.683594 326.691406 C 363.015625 323.824219 363.535156 319.53125 366.476562 319.636719 C 367.5625 319.679688 368.480469 320.414062 369.28125 321.144531 C 372.433594 324.03125 375.113281 327.429688 377.1875 331.167969 C 374.558594 324.175781 373.226562 316.695312 373.285156 309.222656 C 373.304688 306.640625 373.746094 303.625 375.996094 302.359375 C 379.726562 300.269531 383.59375 304.871094 385.304688 308.789062 C 391.097656 322.058594 395.34375 336 397.9375 350.246094 C 398.292969 346.46875 400.566406 342.921875 403.84375 341.019531 C 405.0625 340.3125 406.515625 339.816406 407.871094 340.195312 C 410.035156 340.804688 411.023438 343.285156 411.53125 345.476562 C 413.171875 352.542969 413.089844 359.878906 413.003906 367.128906 C 412.828125 381.257812 412.65625 395.386719 412.480469 409.515625 L 391.636719 399.328125"/><path fill="#ED9E65" d="M 396.511719 406.113281 C 390.996094 391.679688 387.382812 376.515625 385.800781 361.140625 C 385.601562 359.230469 385.445312 357.226562 386.179688 355.449219 C 386.910156 353.671875 388.816406 352.226562 390.6875 352.671875 C 391.796875 352.941406 392.664062 353.792969 393.40625 354.664062 C 396.324219 358.070312 398.304688 362.273438 399.066406 366.695312 C 397.28125 351.769531 398.519531 336.484375 402.679688 322.039062 C 403.5625 318.976562 405.910156 315.21875 408.917969 316.265625 C 410.480469 316.8125 411.308594 318.484375 411.890625 320.035156 C 413.714844 324.90625 414.667969 330.105469 414.691406 335.308594 C 416.082031 325.730469 419.339844 317.0625 424.242188 308.71875 C 425.605469 306.398438 427.714844 303.851562 430.371094 304.273438 C 432.042969 304.535156 433.332031 306 433.863281 307.605469 C 434.394531 309.214844 434.304688 310.957031 434.152344 312.644531 C 432.925781 326.238281 428.082031 339.207031 423.28125 351.980469 C 426.074219 347.011719 428.351562 341.746094 433.535156 339.375 C 434.375 338.992188 435.320312 338.691406 436.210938 338.921875 C 438.375 339.480469 438.652344 342.453125 438.195312 344.640625 C 436.976562 350.457031 433.914062 355.695312 430.898438 360.8125 C 428.113281 365.535156 425.328125 370.261719 422.542969 374.984375 C 423.558594 373.378906 424.636719 371.707031 426.292969 370.777344 C 427.949219 369.84375 430.355469 369.957031 431.421875 371.53125 C 432.566406 373.222656 431.65625 375.5 430.703125 377.304688 C 424.589844 388.882812 417.320312 399.851562 409.039062 409.992188 L 396.511719 406.113281"/><path fill="#6150FF" d="M 410.328125 443.097656 L 396.742188 443.097656 C 389.34375 443.097656 383.347656 437.101562 383.347656 429.699219 L 383.347656 396.253906 L 423.71875 396.253906 L 423.71875 429.699219 C 423.71875 437.101562 417.722656 443.097656 410.328125 443.097656"/><path fill="#6150FF" d="M 606.710938 343.546875 L 635.835938 327.957031 C 640.789062 325.308594 656.65625 324.40625 660.160156 328.800781 C 663.917969 333.507812 661.214844 342.574219 655.148438 346.957031 L 606.710938 343.546875"/><path fill="#F4B49A" d="M 529.917969 411.414062 C 523.863281 411.675781 518.882812 411.71875 512.828125 411.984375 C 509.84375 412.113281 506.832031 412.25 503.957031 413.0625 C 499.949219 414.199219 496.894531 417.488281 494.171875 420.476562 C 490.726562 424.25 487.007812 427.738281 483.839844 431.785156 C 483.464844 432.265625 483.085938 432.765625 482.921875 433.351562 C 482.757812 433.9375 482.851562 434.640625 483.308594 435.039062 C 483.980469 435.628906 485.046875 435.316406 485.785156 434.808594 C 489.5625 432.222656 493.121094 429.03125 496.515625 425.941406 C 494.601562 427.953125 492.691406 429.960938 490.773438 431.96875 C 489.449219 433.363281 488.03125 435.019531 488.230469 436.929688 C 488.246094 437.070312 488.273438 437.222656 488.371094 437.328125 C 488.453125 437.417969 488.570312 437.460938 488.6875 437.492188 C 490.332031 437.933594 491.902344 436.679688 493.148438 435.519531 C 495.886719 432.964844 498.625 430.410156 501.371094 427.855469 C 499.730469 429.378906 493.136719 436.152344 495.464844 438.589844 C 496.683594 439.867188 498.984375 437.761719 499.769531 436.894531 C 502.734375 433.605469 505.578125 430.203125 508.28125 426.695312 C 506.179688 429.417969 503.988281 433.398438 503.339844 436.777344 C 503.226562 437.363281 503.179688 438.050781 503.597656 438.472656 C 504.269531 439.140625 505.402344 438.542969 506.105469 437.910156 C 506.769531 437.300781 514.121094 428.210938 513.925781 428.109375 C 517.136719 429.800781 520.703125 430.824219 524.304688 431.289062 C 527.933594 431.753906 531.894531 431.996094 534.972656 430.019531 L 529.917969 411.414062"/><path fill="#6150FF" d="M 582.964844 402.382812 L 529.921875 411.414062 L 534.972656 430.019531 L 543.449219 429.890625 C 551.019531 438.820312 567.808594 431.652344 581.839844 429.300781 L 582.964844 402.382812"/><path fill="#6150FF" d="M 581.835938 427.980469 L 606.121094 383.285156 L 603.613281 342.574219 C 593.679688 342.496094 582.113281 361.398438 579.097656 372.167969 L 558.136719 415.597656 L 581.835938 427.980469"/><path fill="#FFBFA9" d="M 577.894531 602.007812 L 582.238281 617.476562 C 583.851562 623.222656 579.773438 628.988281 574.097656 628.988281 L 508.84375 628.988281 C 506.679688 628.988281 504.929688 627.140625 504.929688 624.859375 C 504.929688 623.347656 505.851562 621.984375 507.253906 621.425781 L 528.78125 612.8125 L 551.621094 602.007812 L 577.894531 602.007812"/><path fill="#231F20" d="M 502.75 629.09375 C 502.75 631.386719 504.609375 633.246094 506.902344 633.246094 L 545.390625 633.246094 C 552.644531 632.058594 559.425781 631.78125 565.300781 633.246094 L 583.878906 633.246094 C 586.171875 633.246094 588.03125 631.386719 588.03125 629.09375 L 555.460938 624.015625 L 502.75 629.09375"/><path fill="#EA2F2F" d="M 588.113281 627.167969 C 588.101562 628.234375 587.230469 629.09375 586.164062 629.09375 L 564.28125 629.09375 C 560.292969 625.972656 552.972656 626.875 544.574219 629.09375 L 502.75 629.09375 L 504.550781 622.964844 C 505.464844 619.863281 507.972656 617.496094 511.121094 616.765625 L 525.023438 613.554688 L 546.28125 602.109375 L 549.03125 604.078125 L 559.25 611.402344 L 581.707031 606.714844 C 581.707031 606.714844 581.707031 606.71875 581.710938 606.71875 C 586.125 613.789062 588.179688 620.59375 588.113281 627.167969"/><path fill="#FFBFA9" d="M 503.003906 493.597656 L 551.621094 602.007812 L 577.894531 602.007812 L 546.882812 488.871094 L 503.003906 493.597656"/><path fill="#ED9E65" d="M 504.210938 500.164062 L 548.179688 594.335938 L 575.480469 594.199219 L 546.882812 488.871094 L 504.210938 500.164062"/><path fill="#ED9E65" d="M 664.222656 467.367188 C 668.128906 487.96875 653.101562 507.175781 633.074219 507.175781 L 504.210938 500.164062 C 495.730469 484.523438 505.207031 464.878906 522.25 462.777344 L 606.085938 455.21875 L 664.222656 467.367188"/><path fill="#ED9E65" d="M 674.113281 442.082031 L 677.375 472.113281 C 681.28125 492.714844 668.335938 509.257812 648.3125 509.257812 L 515.59375 507.171875 C 507.109375 491.53125 516.589844 471.882812 533.628906 469.78125 L 606.785156 464.433594 L 605.289062 444.652344 L 674.113281 442.082031"/><path fill="#FFBFA9" d="M 516.082031 504.835938 L 563.164062 602.007812 L 590.59375 602.007812 L 559.964844 500.105469 L 516.082031 504.835938"/><path fill="#ED9E65" d="M 516.085938 504.835938 L 553.339844 594.375 L 588.21875 594.101562 L 584.359375 581.269531 C 590.257812 559.855469 571.304688 528.449219 559.964844 500.105469 L 516.085938 504.835938"/><path stroke-linecap="round" transform="matrix(.03228 0 0 -.0323 81.13 634.29)" fill="none" stroke-linejoin="round" d="M 16299.968189 5339.768241 L 14033.632216 5173.014744 C 13505.651446 5107.474211 13212.194337 4494.996721 13474.79307 4007.433199 L 14629.01736 1235.624901" stroke="#231F20" stroke-width="20.596" stroke-miterlimit="10"/><path fill="#FFBFA9" d="M 586.796875 628.988281 L 574.460938 628.988281 C 570.472656 625.867188 563.152344 626.773438 554.753906 628.988281 L 521.539062 628.988281 C 519.382812 628.988281 517.628906 627.140625 517.628906 624.859375 C 517.628906 624.105469 517.859375 623.386719 518.261719 622.785156 C 518.671875 622.1875 519.25 621.703125 519.953125 621.425781 L 541.480469 612.8125 L 559.210938 603.976562 L 563.164062 602.003906 L 590.597656 602.003906 L 591.886719 606.613281 C 591.886719 606.613281 591.886719 606.617188 591.890625 606.617188 L 594.9375 617.476562 C 596.550781 623.222656 592.472656 628.988281 586.796875 628.988281"/><path fill="#6150FF" d="M 600.070312 402.582031 L 602.109375 454.382812 C 622.773438 461.703125 648.664062 463.980469 679.429688 461.554688 C 679.429688 461.554688 680.769531 412.734375 680.769531 412.730469 C 681.285156 393.90625 688.710938 373.023438 677.863281 355.84375 C 671.378906 345.585938 659.25 344.097656 648.066406 343.792969 C 647.957031 343.789062 616.3125 342.921875 616.3125 342.921875 L 603.613281 342.574219 L 601.558594 362.855469 C 594.9375 374.839844 598.5625 387.570312 600.070312 402.582031"/><path fill="#F4B49A" d="M 612.390625 326.085938 C 614.113281 327.308594 616.21875 327.910156 618.308594 328.265625 C 623.183594 328.3125 628.78125 326.5625 634.683594 324.074219 C 640.925781 321.4375 645.910156 316.472656 648.371094 310.195312 C 653.632812 296.777344 644.542969 285.585938 630.84375 285.339844 C 623.546875 285.207031 616.5 287.246094 613.25 293.308594 C 612.957031 293.855469 612.144531 295.941406 611.992188 296.394531 C 611.152344 298.894531 610.542969 301.46875 610.105469 304.078125 C 609.085938 310.195312 606.269531 321.738281 612.390625 326.085938"/><path fill="#F4B49A" d="M 640.257812 318.167969 C 641.195312 330.289062 642.671875 337.484375 646.058594 343.738281 L 618.65625 343.546875 L 616.203125 327.433594 L 640.257812 318.167969"/><path stroke-linecap="round" transform="matrix(.03296 0 0 -.03298 81.13 634.29)" fill="none" stroke-linejoin="round" d="M 16299.97778 10109.58667 L 16269.756366 9944.617243 C 16190.351083 9957.052124 16147.211496 9943.432968 16239.653468 9832.70331" stroke="#231F20" stroke-width="20.171" stroke-miterlimit="10"/><path fill="#231F20" d="M 623.933594 303.753906 C 623.933594 304.488281 624.328125 305.082031 624.808594 305.082031 C 625.285156 305.082031 625.675781 304.488281 625.675781 303.753906 C 625.675781 303.019531 625.285156 302.425781 624.808594 302.425781 C 624.328125 302.425781 623.933594 303.019531 623.933594 303.753906"/><path fill="#231F20" d="M 612.710938 301.339844 C 612.710938 302.074219 613.105469 302.671875 613.582031 302.671875 C 614.0625 302.671875 614.453125 302.074219 614.453125 301.339844 C 614.453125 300.605469 614.0625 300.011719 613.582031 300.011719 C 613.105469 300.011719 612.710938 300.605469 612.710938 301.339844"/><path fill="#FFF" d="M 621.160156 314.011719 C 621.269531 313.867188 621.375 313.71875 621.472656 313.5625 C 621.734375 313.167969 621.953125 312.71875 621.949219 312.246094 C 621.945312 311.773438 621.664062 311.273438 621.207031 311.152344 C 620.886719 311.066406 620.546875 311.171875 620.238281 311.277344 C 619.171875 311.652344 614.398438 313.195312 614.792969 314.773438 C 615.066406 315.859375 617.746094 316.101562 618.59375 315.84375 C 619.621094 315.535156 620.503906 314.855469 621.160156 314.011719"/><path fill="#231F20" d="M 623.171875 298.152344 C 622.65625 297.59375 622.316406 296.667969 623.050781 296.125 C 623.460938 295.824219 624.007812 295.789062 624.507812 295.851562 C 626.90625 296.160156 629.15625 298.429688 630.449219 300.328125 C 630.703125 300.703125 630.921875 301.222656 630.632812 301.570312 C 630.425781 301.820312 630.046875 301.847656 629.726562 301.785156 C 628.574219 301.554688 627.523438 300.898438 626.492188 300.351562 C 625.386719 299.761719 624.023438 299.09375 623.171875 298.152344"/><path fill="#231F20" d="M 611.988281 296.398438 C 612.167969 296.488281 612.339844 296.582031 612.507812 296.671875 C 613.539062 297.21875 614.589844 297.878906 615.742188 298.105469 C 616.058594 298.167969 616.441406 298.140625 616.652344 297.890625 C 616.933594 297.542969 616.71875 297.023438 616.460938 296.648438 C 615.683594 295.503906 614.550781 294.214844 613.25 293.3125 C 611.75 292.964844 610.578125 294.78125 611.988281 296.398438"/><path fill="#EACDB1" d="M 637.042969 319.324219 C 638.179688 322.195312 638.90625 324.886719 641.199219 326.96875 C 643.195312 321.890625 646.488281 316.597656 649.140625 311.824219 C 651.070312 308.347656 653.21875 304.8125 653.585938 300.855469 C 653.855469 297.9375 653.085938 294.925781 651.390625 292.527344 C 649.910156 290.421875 647.628906 289.714844 646.679688 287.199219 C 646.136719 285.746094 645.714844 284.125 644.5 283.15625 C 643.242188 282.152344 641.445312 282.105469 640.101562 281.226562 C 639.011719 280.515625 638.339844 279.339844 637.464844 278.382812 C 635.691406 276.4375 632.988281 275.378906 630.359375 275.601562 C 628.730469 275.742188 627.144531 276.339844 625.519531 276.234375 C 623.242188 276.089844 621.25 274.601562 618.992188 274.304688 C 616.664062 273.996094 614.207031 275.09375 612.894531 277.027344 C 611.886719 278.511719 611.457031 280.484375 609.949219 281.457031 C 609.011719 282.0625 607.828125 282.152344 606.816406 282.632812 C 604.894531 283.542969 603.867188 285.972656 604.546875 287.972656 C 605.4375 290.566406 608.507812 291.734375 611.261719 291.882812 C 614.015625 292.035156 616.839844 291.515625 619.503906 292.222656 C 621.953125 292.867188 624.046875 294.496094 626.503906 295.109375 C 628.519531 295.609375 630.34375 295.222656 632.351562 295.058594 C 634.09375 294.921875 634.605469 295.0625 634.367188 296.878906 C 633.882812 300.550781 632.164062 303.925781 631.9375 307.726562 C 631.875 308.757812 631.976562 309.984375 632.863281 310.523438 C 633.527344 310.925781 634.371094 310.773438 635.132812 310.609375 C 635.132812 310.609375 635.902344 316.453125 637.042969 319.324219"/><path fill="#F4B49A" d="M 622.378906 407.714844 L 554.589844 407.363281 L 560 427.277344 L 628.140625 437.886719 L 622.378906 407.714844"/><path fill="#6150FF" d="M 653.640625 352.992188 L 620.207031 407.703125 L 563.390625 407.410156 L 554.589844 407.363281 L 560 427.273438 L 567.128906 428.382812 C 576.367188 440.5625 605.464844 436.617188 628.140625 437.886719 C 638.175781 437.886719 650.777344 423.855469 656.011719 414.484375 L 674.636719 379.554688 C 684.003906 355.105469 664.046875 342.574219 653.640625 352.992188"/><path stroke-linecap="round" transform="matrix(.03641 0 0 -.03644 81.13 634.29)" fill="none" stroke-linejoin="round" d="M 14293.012245 5399.598984 C 14536.010876 5396.168437 14791.669038 5402.922327 15022.973694 5390.057776 C 15298.693995 5390.057776 15644.685423 5775.029458 15788.446202 6032.320474 L 16299.977094 6990.836713" stroke="#231F20" stroke-width="18.259" stroke-miterlimit="10"/><path stroke-linecap="round" transform="matrix(.02997 0 0 -.03 81.13 634.29)" fill="none" stroke-linejoin="round" d="M 15977.600175 6901.99271 L 16215.595717 6865.004425 C 16239.70808 6833.095517 16268.121567 6804.572861 16300.054157 6778.915494" stroke="#231F20" stroke-width="22.182" stroke-miterlimit="10"/><path stroke-linecap="round" transform="matrix(.03137 0 0 -.0314 81.13 634.29)" fill="none" stroke-linejoin="round" d="M 16300.01415 7221.826907 L 15372.354051 7226.679513 L 15091.939213 7228.172622" stroke="#231F20" stroke-width="21.192" stroke-miterlimit="10"/><path stroke-linecap="round" transform="matrix(.03513 0 0 -.03515 81.13 634.29)" fill="none" stroke-linejoin="round" d="M 16300.022973 8002.986563 L 15347.954045 6446.423245 L 14775.444893 6449.31256" stroke="#231F20" stroke-width="18.928" stroke-miterlimit="10"/><path fill="#F4B49A" d="M 554.589844 407.363281 C 548.109375 407.644531 542.777344 407.691406 536.296875 407.972656 C 533.105469 408.113281 529.878906 408.257812 526.808594 409.128906 C 522.515625 410.339844 519.246094 413.863281 516.332031 417.0625 C 512.648438 421.101562 508.667969 424.832031 505.273438 429.164062 C 504.871094 429.675781 504.46875 430.210938 504.289062 430.839844 C 504.113281 431.464844 504.21875 432.214844 504.707031 432.644531 C 505.429688 433.277344 506.566406 432.941406 507.359375 432.398438 C 511.398438 429.628906 515.207031 426.214844 518.84375 422.910156 C 516.792969 425.0625 514.746094 427.214844 512.699219 429.363281 C 511.28125 430.851562 509.757812 432.625 509.976562 434.667969 C 509.992188 434.824219 510.019531 434.980469 510.125 435.09375 C 510.210938 435.191406 510.339844 435.238281 510.464844 435.269531 C 512.222656 435.742188 513.90625 434.402344 515.238281 433.160156 C 518.167969 430.425781 521.101562 427.691406 524.03125 424.957031 C 522.28125 426.589844 515.226562 433.835938 517.714844 436.445312 C 519.023438 437.8125 521.488281 435.5625 522.324219 434.632812 C 525.5 431.113281 528.539062 427.46875 531.433594 423.714844 C 529.1875 426.628906 526.84375 430.890625 526.144531 434.503906 C 526.023438 435.132812 525.972656 435.867188 526.421875 436.316406 C 527.140625 437.035156 528.351562 436.398438 529.105469 435.714844 C 529.816406 435.066406 537.683594 425.339844 537.472656 425.226562 C 540.910156 427.039062 544.726562 428.136719 548.582031 428.632812 C 552.464844 429.132812 556.703125 429.390625 560 427.273438 L 554.589844 407.363281"/><path stroke-linecap="round" transform="matrix(.02938 0 0 -.0294 81.13 634.29)" fill="none" stroke-linejoin="round" d="M 15533.264206 7110.886061 C 15650.137902 7049.237396 15780.174846 7011.902752 15911.408449 6995.029088 C 16043.572787 6978.02256 16187.836677 6969.253569 16300.056699 7041.265586" stroke="#231F20" stroke-width="22.63" stroke-miterlimit="10"/><path stroke-linecap="round" transform="matrix(.02701 0 0 -.02703 81.13 634.29)" fill="none" stroke-linejoin="round" d="M 16300.040285 8221.982511 C 16230.053701 8166.352655 16167.875539 8099.018854 16109.601586 8035.008396 C 15973.243429 7885.602496 15825.895643 7747.611554 15700.237914 7587.368669 C 15685.344075 7568.440069 15670.450236 7548.64451 15663.798619 7525.381115 C 15657.436202 7502.262214 15661.051212 7474.519532 15679.270859 7458.625287 C 15705.877329 7435.2174 15748.24524 7447.643809 15777.454516 7467.728355 C 15926.971308 7570.173986 16067.956677 7696.460985 16202.435029 7818.702176 C 16126.664431 7739.086459 16050.893832 7659.470743 15975.123234 7579.999519 C 15936.948734 7539.974922 15896.749829 7494.459585 15880.699187 7443.453508" stroke="#231F20" stroke-width="24.61" stroke-miterlimit="10"/><path stroke-linecap="round" transform="matrix(.02716 0 0 -.02718 81.13 634.29)" fill="none" stroke-linejoin="round" d="M 16061.698657 7472.388131 L 16300.030659 7748.918411" stroke="#231F20" stroke-width="24.48" stroke-miterlimit="10"/><path stroke-linecap="round" transform="matrix(.02753 0 0 -.02755 81.13 634.29)" fill="none" stroke-linejoin="round" d="M 16127.678466 7363.654612 L 16300.058904 7610.195563 L 16199.042548 7370.743196" stroke="#231F20" stroke-width="24.146" stroke-miterlimit="10"/><path fill="#F4B49A" d="M 633.53125 312.804688 C 633.53125 317.804688 637.609375 321.859375 642.640625 321.859375 C 647.671875 321.859375 651.75 317.804688 651.75 312.804688 C 651.75 307.804688 647.671875 303.753906 642.640625 303.753906 C 637.609375 303.753906 633.53125 307.804688 633.53125 312.804688"/><path stroke-linecap="round" transform="matrix(.03486 0 0 -.03489 81.13 634.29)" fill="none" stroke-linejoin="round" d="M 16300.042954 9214.422069 C 16300.042954 9320.785079 16213.208733 9406.995098 16106.094519 9406.995098 C 15998.980304 9406.995098 15912.258127 9320.785079 15912.258127 9214.422069" stroke="#231F20" stroke-width="19.07" stroke-miterlimit="10"/><path stroke-linecap="round" transform="matrix(.03435 0 0 -.03438 81.13 634.29)" fill="none" stroke-linejoin="round" d="M 16300.030409 9541.224269 L 16240.903009 9307.617017" stroke="#231F20" stroke-width="19.352" stroke-miterlimit="10"/><path fill="#E5817C" d="M 616.261719 327.824219 C 620.410156 328.515625 626.558594 326.703125 633.527344 323.863281 C 627.527344 329.195312 621.925781 333.015625 617.160156 333.734375 L 616.261719 327.824219"/><path fill="#231F20" d="M 512.929688 628.988281 C 512.929688 631.285156 514.789062 633.144531 517.082031 633.144531 L 555.570312 633.144531 C 562.824219 631.957031 569.605469 631.675781 575.480469 633.144531 L 594.058594 633.144531 C 596.347656 633.144531 598.207031 631.285156 598.207031 628.988281 L 565.640625 623.914062 L 512.929688 628.988281"/><path fill="#EA2F2F" d="M 598.289062 627.0625 C 598.277344 628.132812 597.40625 628.988281 596.339844 628.988281 L 574.460938 628.988281 C 570.46875 625.867188 563.152344 626.773438 554.753906 628.988281 L 512.929688 628.988281 L 514.730469 622.863281 C 515.640625 619.757812 518.152344 617.394531 521.300781 616.664062 L 535.199219 613.453125 L 556.457031 602.003906 L 559.207031 603.976562 L 569.429688 611.296875 L 591.886719 606.617188 C 596.304688 613.683594 598.355469 620.488281 598.289062 627.0625"/><path stroke-linecap="round" transform="matrix(.02882 0 0 -.02884 81.13 634.29)" fill="none" stroke-linejoin="round" d="M 14984.972736 183.849774 L 15047.465622 396.249272 C 15079.050964 503.939068 15166.351221 585.89168 15275.476542 611.222487 L 15757.932466 722.569673 L 16300.034528 1014.348064" stroke="#231F20" stroke-width="23.072" stroke-miterlimit="10"/><path stroke-linecap="round" transform="matrix(.03193 0 0 -.03195 81.13 634.29)" fill="none" stroke-linejoin="round" d="M 16230.022639 7449.944525 C 16122.478067 7726.36994 16206.164629 8107.937263 16300.006138 8495.006199" stroke="#231F20" stroke-width="20.823" stroke-miterlimit="10"/><path fill="#231F20" d="M 686.316406 357.078125 L 676.355469 398.84375 L 673.320312 393.203125 C 672.378906 391.453125 672.128906 389.402344 672.621094 387.472656 L 678.863281 362.953125 C 679.738281 359.496094 682.808594 357.078125 686.316406 357.078125"/><path stroke-linecap="round" transform="matrix(.03816 0 0 -.03819 81.13 634.29)" fill="none" stroke-linejoin="round" d="M 16300.040344 7461.507943 L 16203.410353 7053.794479" stroke="#231F20" stroke-width="17.421" stroke-miterlimit="10"/><path stroke-linecap="round" transform="matrix(.03755 0 0 -.03758 81.13 634.29)" fill="none" stroke-linejoin="round" d="M 16300.017812 7604.396564 L 16201.825398 7190.090766" stroke="#231F20" stroke-width="17.704" stroke-miterlimit="10"/><path stroke-linecap="round" transform="matrix(.03592 0 0 -.03594 81.13 634.29)" fill="none" stroke-linejoin="round" d="M 15861.904199 2743.25732 L 13952.299466 2743.25732 C 13799.500636 2743.25732 13661.818559 2822.914601 13603.20036 2945.06301 L 13528.160366 3101.986767 L 16299.963762 3101.986767 L 16201.759247 2927.131971 C 16138.355889 2814.655456 16006.437754 2743.25732 15861.904199 2743.25732 Z M 15861.904199 2743.25732" stroke="#231F20" stroke-width="18.509" stroke-miterlimit="10"/><path fill="#231F20" d="M 689.796875 349.730469 L 705.789062 349.730469 C 708.433594 349.730469 710.746094 347.890625 711.40625 345.257812 L 714.816406 331.597656 C 715.757812 327.828125 712.988281 324.160156 709.207031 324.160156 L 693.210938 324.160156 C 690.5625 324.160156 688.253906 326 687.597656 328.632812 L 684.1875 342.292969 C 683.242188 346.0625 686.011719 349.730469 689.796875 349.730469"/><path stroke-linecap="round" transform="matrix(.03317 0 0 -.0332 81.13 634.29)" fill="none" stroke-linejoin="round" d="M 16299.947815 2970.599015 L 16299.947815 613.042108" stroke="#231F20" stroke-width="20.044" stroke-miterlimit="10"/><path stroke-linecap="round" transform="matrix(.03547 0 0 -.0355 81.13 634.29)" fill="none" stroke-linejoin="round" d="M 16300.042253 573.211785 L 14133.556248 573.211785" stroke="#231F20" stroke-width="18.741" stroke-miterlimit="10"/><path stroke-linecap="round" transform="matrix(.036 0 0 -.03603 81.13 634.29)" fill="none" stroke-linejoin="round" d="M 15781.51179 298.394139 C 15781.51179 151.269871 15897.605976 32.009226 16040.716473 32.009226 C 16183.935468 32.009226 16300.029654 151.269871 16300.029654 298.394139 C 16300.029654 445.518407 16183.935468 564.779052 16040.716473 564.779052 C 15897.605976 564.779052 15781.51179 445.518407 15781.51179 298.394139 Z M 15781.51179 298.394139" stroke="#231F20" stroke-width="18.466" stroke-miterlimit="10"/><path stroke-linecap="round" transform="matrix(.03133 0 0 -.03135 81.13 634.29)" fill="none" stroke-linejoin="round" d="M 15704.240809 342.885211 C 15704.240809 173.824465 15837.644843 36.781856 16002.093367 36.781856 C 16166.666568 36.781856 16299.945926 173.824465 16299.945926 342.885211 C 16299.945926 511.945957 16166.666568 648.988566 16002.093367 648.988566 C 15837.644843 648.988566 15704.240809 511.945957 15704.240809 342.885211 Z M 15704.240809 342.885211" stroke="#231F20" stroke-width="21.219" stroke-miterlimit="10"/><path stroke-linecap="round" transform="matrix(.03374 0 0 -.03377 81.13 634.29)" fill="none" stroke-linejoin="round" d="M 15746.687268 318.383751 C 15746.687268 161.403535 15870.558665 34.153545 16023.371977 34.153545 C 16176.069522 34.153545 16300.056686 161.403535 16300.056686 318.383751 C 16300.056686 475.363966 16176.069522 602.613957 16023.371977 602.613957 C 15870.558665 602.613957 15746.687268 475.363966 15746.687268 318.383751 Z M 15746.687268 318.383751" stroke="#231F20" stroke-width="19.703" stroke-miterlimit="10"/><path fill="#231F20" d="M 584.699219 454.457031 L 681.90625 454.457031 L 681.90625 438.644531 L 590.007812 439.15625 C 588.199219 439.15625 586.242188 440.597656 585.625 442.375 L 582.546875 451.238281 C 581.933594 453.015625 582.894531 454.457031 584.699219 454.457031"/><path fill="#231F20" d="M 686.546875 356.433594 C 684.765625 356.433594 683.222656 357.703125 682.832031 359.488281 L 678.046875 381.335938 L 649.972656 506.417969 L 649.667969 509 L 674.039062 515.246094 L 701.910156 381.335938 L 706.3125 361.210938 C 706.851562 358.761719 705.039062 356.433594 702.601562 356.433594 L 686.546875 356.433594"/><path fill="#231F20" d="M 559.046875 515.136719 C 559.046875 519.363281 562.578125 522.789062 566.9375 522.789062 L 666.144531 522.789062 C 670.460938 522.789062 673.972656 519.429688 674.035156 515.246094 C 674.101562 510.976562 670.546875 507.484375 666.144531 507.484375 L 566.9375 507.484375 C 562.578125 507.484375 559.046875 510.910156 559.046875 515.136719"/><path fill="#6150FF" d="M 618.65625 343.546875 L 647.785156 327.957031 C 652.738281 325.308594 658.890625 326.542969 662.394531 330.9375 C 666.148438 335.644531 668.472656 341.464844 667.09375 346.957031 L 618.65625 343.546875"/><path stroke-linecap="round" transform="matrix(.03322 0 0 -.03324 81.13 634.29)" fill="none" stroke-linejoin="round" d="M 16299.9851 8711.707428 L 16299.9851 8127.717038" stroke="#231F20" stroke-width="20.012" stroke-miterlimit="10"/><path stroke-linecap="round" transform="matrix(.03283 0 0 -.03285 81.13 634.29)" fill="none" stroke-linejoin="round" d="M 16299.95871 8816.279156 L 16299.95871 8225.310671" stroke="#231F20" stroke-width="20.253" stroke-miterlimit="10"/><path fill="#F2ECEB" d="M 639.234375 316.054688 C 641.078125 315.753906 642.078125 312.128906 641.042969 310.667969 C 640.105469 309.34375 638.261719 310.132812 637.925781 311.605469 C 637.542969 313.269531 636.550781 316.488281 639.234375 316.054688"/><path fill="#231F20" d="M 577.566406 449.191406 L 221.058594 449.191406 L 221.058594 442.972656 L 577.566406 442.972656 L 577.566406 449.191406"/><path stroke-linecap="round" transform="matrix(.02958 0 0 -.0296 81.13 634.29)" fill="none" stroke-linejoin="round" d="M 15713.026418 6233.307386 L 16300.057889 72.333255" stroke="#231F20" stroke-width="22.471" stroke-miterlimit="10"/><path fill="#231F20" d="M 449.40625 443.097656 L 444.6875 443.097656 L 454.910156 409.335938 L 459.628906 409.335938 L 449.40625 443.097656"/><path fill="#D1C2BA" d="M 452.15625 410.375 L 461.59375 410.375 L 461.59375 299.835938 L 452.15625 299.835938 L 452.15625 410.375"/></svg>